<svg xmlns="http://www.w3.org/2000/svg" width="16" height="16" fill="none"><path fill="gold" d="m8 0 7 4v8l-7 4-7-4V4l7-4Z"/><path fill="gold" d="m8 0 7 4v8l-7 4-7-4V4l7-4Z"/><path fill="#593A01" fill-opacity=".986" d="m8 1 6 3.5v7L8 15l-6-3.5v-7L8 1Z"/><path fill="#593A01" fill-opacity=".986" d="m8 1 6 3.5v7L8 15l-6-3.5v-7L8 1Z"/><path fill="gold" d="M6.054 10.5c-.067 0-.1-.033-.1-.1v-.57c0-.067.033-.1.1-.1h1.56V4.92l-1.5.47a.16.16 0 0 1-.08 0c-.013-.013-.02-.037-.02-.07v-.59c0-.053.02-.087.06-.1l2.09-.7a.18.18 0 0 1 .06-.01.329.329 0 0 1 .08-.01h.06c.066 0 .1.033.1.1v5.72h1.38c.067 0 .1.033.1.1v.57c0 .067-.034.1-.1.1h-3.79Z"/></svg>