<svg xmlns="http://www.w3.org/2000/svg" width="16" height="16" fill="none"><path fill="gold" d="m8 0 7 4v8l-7 4-7-4V4l7-4Z"/><path fill="gold" d="m8 0 7 4v8l-7 4-7-4V4l7-4Z"/><path fill="#593A01" fill-opacity=".986" d="m8 1 6 3.5v7L8 15l-6-3.5v-7L8 1Z"/><path fill="#593A01" fill-opacity=".986" d="m8 1 6 3.5v7L8 15l-6-3.5v-7L8 1Z"/><path fill="gold" d="M4.359 10.598c-.06 0-.09-.03-.09-.09v-.512c0-.06.03-.09.09-.09h1.404v-4.33L4.413 6a.144.144 0 0 1-.072 0c-.012-.013-.018-.034-.018-.064v-.53c0-.048.018-.079.054-.09l1.88-.63a.17.17 0 0 1 .055-.01.296.296 0 0 1 .072-.008h.054c.06 0 .09.03.09.09v5.147H7.77c.06 0 .09.03.09.09v.514c0 .06-.03.09-.09.09H4.359Zm4.087 0c-.06 0-.09-.03-.09-.09v-.512c0-.06.03-.09.09-.09H9.85v-4.33L8.5 6a.144.144 0 0 1-.072 0c-.012-.013-.018-.034-.018-.064v-.53c0-.048.018-.079.054-.09l1.88-.63a.17.17 0 0 1 .055-.01.296.296 0 0 1 .072-.008h.054c.06 0 .09.03.09.09v5.147h1.242c.06 0 .09.03.09.09v.514c0 .06-.03.09-.09.09H8.446Z"/></svg>