<svg xmlns="http://www.w3.org/2000/svg" width="16" height="16" fill="none"><path fill="gold" d="m8 0 7 4v8l-7 4-7-4V4l7-4Z"/><path fill="gold" d="m8 0 7 4v8l-7 4-7-4V4l7-4Z"/><path fill="#593A01" fill-opacity=".986" d="m8 1 6 3.5v7L8 15l-6-3.5v-7L8 1Z"/><path fill="#593A01" fill-opacity=".986" d="m8 1 6 3.5v7L8 15l-6-3.5v-7L8 1Z"/><path fill="gold" d="M4.01 10.598c-.06 0-.09-.03-.09-.09v-.512c0-.06.03-.09.09-.09h1.403v-4.33L4.063 6a.144.144 0 0 1-.072 0c-.012-.013-.018-.034-.018-.064v-.53c0-.048.018-.079.054-.09l1.881-.63a.17.17 0 0 1 .054-.01.296.296 0 0 1 .072-.008h.054c.06 0 .09.03.09.09v5.147H7.42c.06 0 .09.03.09.09v.514c0 .06-.03.09-.09.09H4.01Zm6.003.108c-.402 0-.741-.063-1.017-.188a1.403 1.403 0 0 1-.612-.55 1.69 1.69 0 0 1-.198-.828c0-.06.03-.09.09-.09h.576c.06 0 .09.03.09.09 0 .288.087.51.261.666.18.15.444.226.792.226.408 0 .723-.085.945-.252.222-.175.333-.414.333-.72v-.235c0-.3-.105-.527-.315-.683-.204-.156-.51-.234-.918-.234h-.783c-.06 0-.09-.03-.09-.09v-.486c0-.06.03-.09.09-.09h.792c.354 0 .621-.082.801-.244.186-.162.279-.399.279-.71v-.235c0-.263-.093-.458-.279-.585-.18-.131-.453-.197-.819-.197-.366 0-.639.072-.819.216-.174.138-.261.362-.261.675 0 .06-.03.09-.09.09h-.576a.086.086 0 0 1-.063-.027.086.086 0 0 1-.027-.063c0-.522.156-.912.468-1.17.318-.264.795-.397 1.431-.397.612 0 1.065.123 1.359.37.294.24.441.617.441 1.133 0 .385-.081.697-.243.937a1.161 1.161 0 0 1-.63.476v.018c.348.115.603.292.765.531.168.234.252.54.252.918 0 .559-.174.988-.522 1.287-.348.294-.849.441-1.503.441Z"/></svg>