<svg xmlns="http://www.w3.org/2000/svg" width="16" height="16" fill="none"><path fill="gold" d="m8 0 7 4v8l-7 4-7-4V4l7-4Z"/><path fill="gold" d="m8 0 7 4v8l-7 4-7-4V4l7-4Z"/><path fill="#593A01" fill-opacity=".986" d="m8 1 6 3.5v7L8 15l-6-3.5v-7L8 1Z"/><path fill="#593A01" fill-opacity=".986" d="m8 1 6 3.5v7L8 15l-6-3.5v-7L8 1Z"/><path fill="gold" d="M3.887 10.598c-.06 0-.09-.03-.09-.09v-.512c0-.06.03-.09.09-.09h1.404v-4.33L3.941 6a.144.144 0 0 1-.072 0c-.012-.013-.018-.034-.018-.064v-.53c0-.048.018-.079.054-.09l1.881-.63a.17.17 0 0 1 .054-.01.296.296 0 0 1 .072-.008h.054c.06 0 .09.03.09.09v5.147h1.242c.06 0 .09.03.09.09v.514c0 .06-.03.09-.09.09h-3.41Zm6.877 0c-.06 0-.09-.03-.09-.09v-1.07h-2.97c-.06 0-.09-.03-.09-.09V9.23a.494.494 0 0 1 .027-.063l2.421-4.391c.03-.048.07-.072.117-.072h.594c.03 0 .051.009.063.027.018.018.018.042 0 .072L8.658 8.745h2.025V6.774c0-.06.03-.09.09-.09h.55c.06 0 .09.03.09.09v1.97h.683c.06 0 .09.03.09.09v.514c0 .06-.03.09-.09.09h-.684v1.07c0 .06-.03.09-.09.09h-.558Z"/></svg>