<svg xmlns="http://www.w3.org/2000/svg" width="16" height="16" fill="none"><path fill="gold" d="m8 0 7 4v8l-7 4-7-4V4l7-4Z"/><path fill="gold" d="m8 0 7 4v8l-7 4-7-4V4l7-4Z"/><path fill="#593A01" fill-opacity=".986" d="m8 1 6 3.5v7L8 15l-6-3.5v-7L8 1Z"/><path fill="#593A01" fill-opacity=".986" d="m8 1 6 3.5v7L8 15l-6-3.5v-7L8 1Z"/><path fill="gold" d="M4.126 10.598c-.06 0-.09-.03-.09-.09v-.512c0-.06.03-.09.09-.09H5.53v-4.33L4.18 6a.144.144 0 0 1-.072 0c-.012-.013-.018-.034-.018-.064v-.53c0-.048.018-.079.054-.09l1.88-.63a.17.17 0 0 1 .055-.01.296.296 0 0 1 .072-.008h.054c.06 0 .09.03.09.09v5.147h1.242c.06 0 .09.03.09.09v.514c0 .06-.03.09-.09.09H4.126Zm5.833.108c-.372 0-.69-.06-.954-.18a1.33 1.33 0 0 1-.594-.521c-.132-.235-.198-.523-.198-.865 0-.03.009-.05.027-.063a.086.086 0 0 1 .063-.027h.567c.06 0 .09.03.09.09 0 .294.09.516.27.666.18.15.444.226.792.226.432 0 .744-.09.936-.27.192-.18.288-.46.288-.838v-.27c0-.264-.045-.48-.135-.647a.758.758 0 0 0-.405-.378c-.18-.084-.414-.126-.702-.126-.186 0-.414.03-.684.09a3.465 3.465 0 0 0-.765.252c-.048.024-.09.024-.126 0-.03-.024-.042-.058-.036-.1l.27-2.952c.006-.06.036-.09.09-.09h2.826c.06 0 .09.03.09.09v.513c0 .06-.03.09-.09.09H9.338L9.22 6.981a4.048 4.048 0 0 1 .98-.127c.565 0 1.006.16 1.324.478.324.317.486.788.486 1.413 0 .636-.177 1.122-.531 1.458-.348.336-.855.504-1.521.504Z"/></svg>