<svg xmlns="http://www.w3.org/2000/svg" width="16" height="16" fill="none"><path fill="gold" d="m8 0 7 4v8l-7 4-7-4V4l7-4Z"/><path fill="gold" d="m8 0 7 4v8l-7 4-7-4V4l7-4Z"/><path fill="#593A01" fill-opacity=".986" d="m8 1 6 3.5v7L8 15l-6-3.5v-7L8 1Z"/><path fill="#593A01" fill-opacity=".986" d="m8 1 6 3.5v7L8 15l-6-3.5v-7L8 1Z"/><path fill="gold" d="M4.006 11c-.06 0-.09-.03-.09-.09v-.513c0-.06.03-.09.09-.09H5.41V5.978l-1.35.423a.144.144 0 0 1-.072 0c-.012-.012-.018-.033-.018-.063v-.531c0-.048.018-.078.054-.09l1.88-.63a.17.17 0 0 1 .055-.009.296.296 0 0 1 .072-.009h.054c.06 0 .09.03.09.09v5.148h1.242c.06 0 .09.03.09.09v.513c0 .06-.03.09-.09.09H4.006Zm4.934 0c-.03 0-.051-.009-.063-.027a.095.095 0 0 1 0-.081l2.322-5.094H8.84v.738c0 .06-.03.09-.09.09h-.576c-.06 0-.09-.03-.09-.09V5.195c0-.06.03-.09.09-.09h3.95c.03 0 .052.009.064.027.018.012.027.033.027.063v.045a.296.296 0 0 1-.01.072.145.145 0 0 1-.017.063l-2.511 5.544a.179.179 0 0 1-.054.063.128.128 0 0 1-.072.018H8.94Z"/></svg>