<svg xmlns="http://www.w3.org/2000/svg" width="16" height="16" fill="none"><path fill="gold" d="m8 0 7 4v8l-7 4-7-4V4l7-4Z"/><path fill="gold" d="m8 0 7 4v8l-7 4-7-4V4l7-4Z"/><path fill="#593A01" fill-opacity=".986" d="m8 1 6 3.5v7L8 15l-6-3.5v-7L8 1Z"/><path fill="#593A01" fill-opacity=".986" d="m8 1 6 3.5v7L8 15l-6-3.5v-7L8 1Z"/><path fill="gold" d="M3.887 11c-.06 0-.09-.03-.09-.09v-.513c0-.06.03-.09.09-.09h1.404V5.978l-1.35.423a.144.144 0 0 1-.072 0c-.012-.012-.018-.033-.018-.063v-.531c0-.048.018-.078.054-.09l1.881-.63a.17.17 0 0 1 .054-.009.296.296 0 0 1 .072-.009h.054c.06 0 .09.03.09.09v5.148h1.242c.06 0 .09.03.09.09v.513c0 .06-.03.09-.09.09h-3.41Zm6.175.108c-.582 0-1.032-.123-1.35-.369-.318-.246-.477-.6-.477-1.062 0-.06.03-.09.09-.09h.576c.06 0 .09.03.09.09 0 .18.09.351.27.513.186.162.456.243.81.243.444 0 .771-.108.981-.324.216-.216.324-.534.324-.954V6.941c0-.396-.114-.705-.342-.927-.228-.228-.54-.342-.936-.342-.258 0-.477.051-.657.153a.973.973 0 0 0-.414.423c-.09.186-.135.417-.135.693v.342c0 .294.093.525.28.693.185.168.443.252.773.252.264 0 .525-.054.783-.162a2.76 2.76 0 0 0 .774-.495l.01.648c-.289.24-.565.414-.829.522-.258.102-.54.153-.846.153-.558 0-.984-.156-1.278-.468-.288-.312-.432-.765-.432-1.359 0-.672.171-1.185.513-1.539.342-.354.831-.531 1.467-.531.642 0 1.14.177 1.494.531.36.354.54.843.54 1.467V9.11c0 .654-.174 1.152-.522 1.494-.348.336-.867.504-1.557.504Z"/></svg>