<svg xmlns="http://www.w3.org/2000/svg" width="17" height="16" fill="none"><path fill="gold" d="m8.962 0 7 4v8l-7 4-7-4V4l7-4Z"/><path fill="gold" d="m8.962 0 7 4v8l-7 4-7-4V4l7-4Z"/><path fill="#593A01" fill-opacity=".986" d="m8.962 1 6 3.5v7l-6 3.5-6-3.5v-7l6-3.5Z"/><path fill="#593A01" fill-opacity=".986" d="m8.962 1 6 3.5v7l-6 3.5-6-3.5v-7l6-3.5Z"/><path fill="gold" d="M7.068 11c-.067 0-.1-.033-.1-.1v-.69c0-.32.057-.603.17-.85a2.38 2.38 0 0 1 .47-.67 4.82 4.82 0 0 1 .63-.53c.233-.167.463-.323.69-.47.233-.153.447-.303.64-.45a2.1 2.1 0 0 0 .46-.49c.12-.18.18-.38.18-.6v-.21c0-.287-.103-.5-.31-.64-.2-.147-.497-.22-.89-.22s-.687.087-.88.26c-.187.173-.28.417-.28.73 0 .067-.03.1-.09.1h-.65c-.067 0-.1-.033-.1-.1 0-.373.077-.69.23-.95.153-.26.383-.457.69-.59.313-.133.703-.2 1.17-.2.66 0 1.15.14 1.47.42.327.28.49.69.49 1.23 0 .353-.06.657-.18.91a2.262 2.262 0 0 1-.46.66 3.975 3.975 0 0 1-.63.51c-.227.147-.453.29-.68.43a5.61 5.61 0 0 0-.63.45c-.187.16-.34.343-.46.55a1.52 1.52 0 0 0-.17.74h3.08c.067 0 .1.033.1.1v.57c0 .067-.033.1-.1.1h-3.86Z"/></svg>