<svg xmlns="http://www.w3.org/2000/svg" width="16" height="16" fill="none"><path fill="gold" d="m8 0 7 4v8l-7 4-7-4V4l7-4Z"/><path fill="gold" d="m8 0 7 4v8l-7 4-7-4V4l7-4Z"/><path fill="#593A01" fill-opacity=".986" d="m8 1 6 3.5v7L8 15l-6-3.5v-7L8 1Z"/><path fill="#593A01" fill-opacity=".986" d="m8 1 6 3.5v7L8 15l-6-3.5v-7L8 1Z"/><path fill="gold" d="M3.933 10.5c-.06 0-.09-.03-.09-.09v-.621c0-.288.05-.543.153-.765.108-.228.249-.429.423-.603s.363-.333.567-.477c.21-.15.417-.291.62-.423.21-.138.403-.273.577-.405a1.89 1.89 0 0 0 .414-.441.952.952 0 0 0 .162-.54v-.189c0-.258-.093-.45-.28-.576-.18-.132-.446-.198-.8-.198-.354 0-.618.078-.792.234-.168.156-.252.375-.252.657 0 .06-.027.09-.081.09h-.585c-.06 0-.09-.03-.09-.09 0-.336.069-.621.207-.855.138-.234.345-.411.62-.531.283-.12.634-.18 1.054-.18.594 0 1.035.126 1.323.378.294.252.44.621.44 1.107a1.899 1.899 0 0 1-.575 1.413 3.575 3.575 0 0 1-.567.459c-.204.132-.408.261-.612.387a5.049 5.049 0 0 0-.567.405 1.916 1.916 0 0 0-.414.495 1.365 1.365 0 0 0-.153.666h2.772c.06 0 .09.03.09.09v.513c0 .06-.03.09-.09.09H3.933Zm6.75.108c-.63 0-1.122-.18-1.476-.54-.354-.36-.531-.861-.531-1.503V6.54c0-.642.177-1.143.531-1.503.354-.36.846-.54 1.476-.54s1.122.18 1.476.54c.354.36.531.861.531 1.503v2.025c0 .642-.177 1.143-.531 1.503-.354.36-.846.54-1.476.54Zm0-.675c.39 0 .693-.114.909-.342.222-.234.333-.552.333-.954V6.468c0-.408-.111-.726-.333-.954-.216-.228-.519-.342-.909-.342s-.696.114-.918.342c-.216.228-.324.546-.324.954v2.169c0 .402.108.72.324.954.222.228.528.342.918.342Z"/></svg>