<svg xmlns="http://www.w3.org/2000/svg" width="16" height="16" fill="none"><path fill="gold" d="m8 0 7 4v8l-7 4-7-4V4l7-4Z"/><path fill="gold" d="m8 0 7 4v8l-7 4-7-4V4l7-4Z"/><path fill="#593A01" fill-opacity=".986" d="m8 1 6 3.5v7L8 15l-6-3.5v-7L8 1Z"/><path fill="#593A01" fill-opacity=".986" d="m8 1 6 3.5v7L8 15l-6-3.5v-7L8 1Z"/><path fill="gold" d="M3.751 11c-.06 0-.09-.03-.09-.09v-.621c0-.288.051-.543.153-.765.108-.228.25-.429.423-.603.174-.174.363-.333.567-.477.21-.15.417-.291.621-.423.21-.138.402-.273.576-.405a1.89 1.89 0 0 0 .414-.441.952.952 0 0 0 .162-.54v-.189c0-.258-.093-.45-.279-.576-.18-.132-.447-.198-.8-.198-.355 0-.619.078-.793.234-.168.156-.252.375-.252.657 0 .06-.027.09-.08.09h-.586c-.06 0-.09-.03-.09-.09 0-.336.07-.621.207-.855.138-.234.345-.411.621-.531.282-.12.633-.18 1.053-.18.594 0 1.035.126 1.323.378.294.252.441.621.441 1.107a1.899 1.899 0 0 1-.576 1.413 3.575 3.575 0 0 1-.567.459c-.204.132-.408.261-.612.387a5.049 5.049 0 0 0-.567.405 1.916 1.916 0 0 0-.414.495 1.365 1.365 0 0 0-.153.666h2.772c.06 0 .09.03.09.09v.513c0 .06-.03.09-.09.09H3.751Zm4.86 0c-.06 0-.09-.03-.09-.09v-.621c0-.288.051-.543.153-.765.108-.228.25-.429.423-.603.174-.174.363-.333.567-.477.21-.15.417-.291.621-.423.21-.138.402-.273.576-.405a1.89 1.89 0 0 0 .414-.441.952.952 0 0 0 .162-.54v-.189c0-.258-.093-.45-.279-.576-.18-.132-.447-.198-.8-.198-.355 0-.619.078-.793.234-.168.156-.252.375-.252.657 0 .06-.027.09-.08.09h-.586c-.06 0-.09-.03-.09-.09 0-.336.07-.621.207-.855.138-.234.345-.411.621-.531.282-.12.633-.18 1.053-.18.594 0 1.035.126 1.323.378.294.252.441.621.441 1.107a1.899 1.899 0 0 1-.576 1.413 3.575 3.575 0 0 1-.567.459c-.204.132-.408.261-.612.387a5.047 5.047 0 0 0-.567.405 1.916 1.916 0 0 0-.414.495 1.365 1.365 0 0 0-.153.666h2.772c.06 0 .09.03.09.09v.513c0 .06-.03.09-.09.09H8.611Z"/></svg>