<svg xmlns="http://www.w3.org/2000/svg" width="16" height="16" fill="none"><path fill="gold" d="m8 0 7 4v8l-7 4-7-4V4l7-4Z"/><path fill="gold" d="m8 0 7 4v8l-7 4-7-4V4l7-4Z"/><path fill="#593A01" fill-opacity=".986" d="m8 1 6 3.5v7L8 15l-6-3.5v-7L8 1Z"/><path fill="#593A01" fill-opacity=".986" d="m8 1 6 3.5v7L8 15l-6-3.5v-7L8 1Z"/><path fill="gold" d="M3.933 11c-.06 0-.09-.03-.09-.09v-.621c0-.288.05-.543.153-.765.108-.228.249-.429.423-.603s.363-.333.567-.477c.21-.15.417-.291.62-.423.21-.138.403-.273.577-.405a1.89 1.89 0 0 0 .414-.441.952.952 0 0 0 .162-.54v-.189c0-.258-.093-.45-.28-.576-.18-.132-.446-.198-.8-.198-.354 0-.618.078-.792.234-.168.156-.252.375-.252.657 0 .06-.027.09-.081.09h-.585c-.06 0-.09-.03-.09-.09 0-.336.069-.621.207-.855.138-.234.345-.411.62-.531.283-.12.634-.18 1.054-.18.594 0 1.035.126 1.323.378.294.252.44.621.44 1.107a1.899 1.899 0 0 1-.575 1.413 3.575 3.575 0 0 1-.567.459c-.204.132-.408.261-.612.387a5.049 5.049 0 0 0-.567.405 1.916 1.916 0 0 0-.414.495 1.365 1.365 0 0 0-.153.666h2.772c.06 0 .09.03.09.09v.513c0 .06-.03.09-.09.09H3.933Zm6.507.108c-.402 0-.741-.063-1.017-.189a1.403 1.403 0 0 1-.612-.549 1.69 1.69 0 0 1-.198-.828c0-.06.03-.09.09-.09h.576c.06 0 .09.03.09.09 0 .288.087.51.261.666.18.15.444.225.792.225.408 0 .723-.084.945-.252.222-.174.333-.414.333-.72v-.234c0-.3-.105-.528-.315-.684-.204-.156-.51-.234-.918-.234h-.783c-.06 0-.09-.03-.09-.09v-.486c0-.06.03-.09.09-.09h.792c.354 0 .621-.081.801-.243.186-.162.279-.399.279-.711v-.234c0-.264-.093-.459-.279-.585-.18-.132-.453-.198-.819-.198-.366 0-.639.072-.819.216-.174.138-.261.363-.261.675 0 .06-.03.09-.09.09h-.576a.086.086 0 0 1-.063-.027.086.086 0 0 1-.027-.063c0-.522.156-.912.468-1.17.318-.264.795-.396 1.431-.396.612 0 1.065.123 1.359.369.294.24.441.618.441 1.134 0 .384-.081.696-.243.936a1.161 1.161 0 0 1-.63.477v.018c.348.114.603.291.765.531.168.234.252.54.252.918 0 .558-.174.987-.522 1.287-.348.294-.849.441-1.503.441Z"/></svg>