<svg xmlns="http://www.w3.org/2000/svg" width="16" height="16" fill="none"><path fill="gold" d="m8 0 7 4v8l-7 4-7-4V4l7-4Z"/><path fill="gold" d="m8 0 7 4v8l-7 4-7-4V4l7-4Z"/><path fill="#593A01" fill-opacity=".986" d="m8 1 6 3.5v7L8 15l-6-3.5v-7L8 1Z"/><path fill="#593A01" fill-opacity=".986" d="m8 1 6 3.5v7L8 15l-6-3.5v-7L8 1Z"/><path fill="gold" d="M3.995 11c-.06 0-.09-.03-.09-.09v-.621c0-.288.05-.543.153-.765.108-.228.249-.429.423-.603s.363-.333.567-.477c.21-.15.417-.291.62-.423.21-.138.403-.273.577-.405a1.89 1.89 0 0 0 .414-.441.952.952 0 0 0 .162-.54v-.189c0-.258-.093-.45-.28-.576-.18-.132-.446-.198-.8-.198-.354 0-.618.078-.792.234-.168.156-.252.375-.252.657 0 .06-.027.09-.081.09H4.03c-.06 0-.09-.03-.09-.09 0-.336.069-.621.207-.855.138-.234.345-.411.62-.531.283-.12.634-.18 1.054-.18.594 0 1.035.126 1.323.378.294.252.44.621.44 1.107a1.899 1.899 0 0 1-.575 1.413 3.575 3.575 0 0 1-.567.459c-.204.132-.408.261-.612.387a5.049 5.049 0 0 0-.567.405 1.916 1.916 0 0 0-.414.495 1.365 1.365 0 0 0-.153.666h2.772c.06 0 .09.03.09.09v.513c0 .06-.03.09-.09.09H3.995Zm6.336.108c-.372 0-.69-.06-.954-.18a1.33 1.33 0 0 1-.594-.522c-.132-.234-.198-.522-.198-.864 0-.03.01-.051.027-.063a.086.086 0 0 1 .063-.027h.567c.06 0 .09.03.09.09 0 .294.09.516.27.666.18.15.444.225.792.225.432 0 .744-.09.936-.27.192-.18.288-.459.288-.837v-.27c0-.264-.045-.48-.135-.648a.758.758 0 0 0-.405-.378c-.18-.084-.414-.126-.702-.126-.186 0-.414.03-.684.09a3.465 3.465 0 0 0-.765.252c-.048.024-.09.024-.126 0-.03-.024-.042-.057-.036-.099l.27-2.952c.006-.06.036-.09.09-.09h2.826c.06 0 .09.03.09.09v.513c0 .06-.03.09-.09.09h-2.24l-.118 1.584a4.049 4.049 0 0 1 .981-.126c.564 0 1.005.159 1.323.477.324.318.486.789.486 1.413 0 .636-.177 1.122-.53 1.458-.349.336-.856.504-1.522.504Z"/></svg>