<svg xmlns="http://www.w3.org/2000/svg" width="16" height="16" fill="none"><path fill="gold" d="m8 0 7 4v8l-7 4-7-4V4l7-4Z"/><path fill="gold" d="m8 0 7 4v8l-7 4-7-4V4l7-4Z"/><path fill="#593A01" fill-opacity=".986" d="m8 1 6 3.5v7L8 15l-6-3.5v-7L8 1Z"/><path fill="#593A01" fill-opacity=".986" d="m8 1 6 3.5v7L8 15l-6-3.5v-7L8 1Z"/><path fill="gold" d="M3.751 10.5c-.06 0-.09-.03-.09-.09v-.621c0-.288.051-.543.153-.765.108-.228.25-.429.423-.603.174-.174.363-.333.567-.477.21-.15.417-.291.621-.423.21-.138.402-.273.576-.405a1.89 1.89 0 0 0 .414-.441.952.952 0 0 0 .162-.54v-.189c0-.258-.093-.45-.279-.576-.18-.132-.447-.198-.8-.198-.355 0-.619.078-.793.234-.168.156-.252.375-.252.657 0 .06-.027.09-.08.09h-.586c-.06 0-.09-.03-.09-.09 0-.336.07-.621.207-.855.138-.234.345-.411.621-.531.282-.12.633-.18 1.053-.18.594 0 1.035.126 1.323.378.294.252.441.621.441 1.107a1.899 1.899 0 0 1-.576 1.413 3.575 3.575 0 0 1-.567.459c-.204.132-.408.261-.612.387a5.049 5.049 0 0 0-.567.405 1.916 1.916 0 0 0-.414.495 1.365 1.365 0 0 0-.153.666h2.772c.06 0 .09.03.09.09v.513c0 .06-.03.09-.09.09H3.751Zm6.75.108c-.63 0-1.122-.165-1.476-.495-.354-.33-.53-.81-.53-1.44V6.405c0-.6.18-1.068.54-1.404.36-.336.87-.504 1.53-.504.36 0 .668.051.926.153.264.096.468.237.612.423.144.18.216.399.216.657 0 .06-.03.09-.09.09h-.576c-.06 0-.09-.03-.09-.09 0-.174-.09-.309-.27-.405-.174-.102-.414-.153-.72-.153-.438 0-.768.099-.99.297-.216.198-.324.501-.324.909v2.286c0 .396.108.708.324.936.222.222.525.333.91.333.39 0 .692-.114.908-.342.216-.228.324-.543.324-.945v-.252c0-.324-.084-.567-.252-.729-.168-.168-.417-.252-.747-.252a2.16 2.16 0 0 0-.81.171 2.746 2.746 0 0 0-.783.477v-.648c.276-.222.561-.387.855-.495.3-.114.61-.171.927-.171.522 0 .915.147 1.18.441.263.288.395.717.395 1.287 0 .672-.174 1.197-.522 1.575-.342.372-.83.558-1.467.558Z"/></svg>