<svg xmlns="http://www.w3.org/2000/svg" width="16" height="16" fill="none"><path fill="gold" d="m8 0 7 4v8l-7 4-7-4V4l7-4Z"/><path fill="gold" d="m8 0 7 4v8l-7 4-7-4V4l7-4Z"/><path fill="#593A01" fill-opacity=".986" d="m8 1 6 3.5v7L8 15l-6-3.5v-7L8 1Z"/><path fill="#593A01" fill-opacity=".986" d="m8 1 6 3.5v7L8 15l-6-3.5v-7L8 1Z"/><path fill="gold" d="M3.933 11c-.06 0-.09-.03-.09-.09v-.621c0-.288.05-.543.153-.765.108-.228.249-.429.423-.603s.363-.333.567-.477c.21-.15.417-.291.62-.423.21-.138.403-.273.577-.405a1.89 1.89 0 0 0 .414-.441.952.952 0 0 0 .162-.54v-.189c0-.258-.093-.45-.28-.576-.18-.132-.446-.198-.8-.198-.354 0-.618.078-.792.234-.168.156-.252.375-.252.657 0 .06-.027.09-.081.09h-.585c-.06 0-.09-.03-.09-.09 0-.336.069-.621.207-.855.138-.234.345-.411.62-.531.283-.12.634-.18 1.054-.18.594 0 1.035.126 1.323.378.294.252.44.621.44 1.107a1.899 1.899 0 0 1-.575 1.413 3.575 3.575 0 0 1-.567.459c-.204.132-.408.261-.612.387a5.049 5.049 0 0 0-.567.405 1.916 1.916 0 0 0-.414.495 1.365 1.365 0 0 0-.153.666h2.772c.06 0 .09.03.09.09v.513c0 .06-.03.09-.09.09H3.933Zm6.732.108c-.666 0-1.182-.138-1.548-.414-.366-.282-.549-.708-.549-1.278 0-.39.09-.717.27-.981.186-.27.435-.462.747-.576a1.316 1.316 0 0 1-.576-.477c-.126-.204-.189-.486-.189-.846 0-.474.159-.849.477-1.125.318-.276.774-.414 1.368-.414.594 0 1.05.138 1.368.414.318.276.477.651.477 1.125 0 .36-.063.642-.189.846a1.316 1.316 0 0 1-.576.477c.312.114.558.306.738.576.186.264.279.591.279.981 0 .57-.183.996-.549 1.278-.366.276-.882.414-1.548.414Zm0-.648c.444 0 .777-.087.999-.261.222-.174.333-.42.333-.738v-.153c0-.366-.12-.648-.36-.846-.234-.204-.558-.306-.972-.306-.414 0-.741.102-.981.306-.234.198-.351.48-.351.846v.153c0 .318.111.564.333.738.222.174.555.261.999.261Zm0-2.898c.348 0 .615-.081.801-.243.186-.162.279-.384.279-.666v-.135a.78.78 0 0 0-.279-.63c-.18-.162-.447-.243-.801-.243-.348 0-.615.081-.801.243a.78.78 0 0 0-.279.63v.135c0 .282.093.504.279.666.186.162.453.243.801.243Z"/></svg>