<svg xmlns="http://www.w3.org/2000/svg" width="16" height="16" fill="none"><path fill="gold" d="m8 0 7 4v8l-7 4-7-4V4l7-4Z"/><path fill="gold" d="m8 0 7 4v8l-7 4-7-4V4l7-4Z"/><path fill="#593A01" fill-opacity=".986" d="m8 1 6 3.5v7L8 15l-6-3.5v-7L8 1Z"/><path fill="#593A01" fill-opacity=".986" d="m8 1 6 3.5v7L8 15l-6-3.5v-7L8 1Z"/><path fill="gold" d="M3.647 11c-.06 0-.09-.03-.09-.09v-.621c0-.288.051-.543.153-.765.108-.228.25-.429.423-.603.174-.174.363-.333.567-.477.21-.15.417-.291.621-.423.21-.138.402-.273.576-.405a1.89 1.89 0 0 0 .414-.441.952.952 0 0 0 .162-.54v-.189c0-.258-.093-.45-.279-.576-.18-.132-.447-.198-.8-.198-.355 0-.619.078-.793.234-.168.156-.252.375-.252.657 0 .06-.027.09-.08.09h-.586c-.06 0-.09-.03-.09-.09 0-.336.07-.621.207-.855.138-.234.345-.411.621-.531.282-.12.633-.18 1.053-.18.594 0 1.035.126 1.323.378.294.252.441.621.441 1.107a1.899 1.899 0 0 1-.576 1.413 3.575 3.575 0 0 1-.567.459c-.204.132-.408.261-.612.387a5.049 5.049 0 0 0-.567.405 1.916 1.916 0 0 0-.414.495 1.365 1.365 0 0 0-.153.666h2.772c.06 0 .09.03.09.09v.513c0 .06-.03.09-.09.09H3.647Zm6.679.108c-.582 0-1.032-.123-1.35-.369-.318-.246-.477-.6-.477-1.062 0-.06.03-.09.09-.09h.576c.06 0 .09.03.09.09 0 .18.09.351.27.513.186.162.456.243.81.243.444 0 .77-.108.98-.324.217-.216.325-.534.325-.954V6.941c0-.396-.114-.705-.342-.927-.228-.228-.54-.342-.936-.342-.258 0-.477.051-.657.153a.973.973 0 0 0-.414.423c-.09.186-.135.417-.135.693v.342c0 .294.093.525.279.693.186.168.444.252.774.252.264 0 .525-.054.783-.162a2.76 2.76 0 0 0 .774-.495l.009.648c-.288.24-.564.414-.828.522-.258.102-.54.153-.846.153-.558 0-.984-.156-1.278-.468-.288-.312-.432-.765-.432-1.359 0-.672.17-1.185.513-1.539.342-.354.83-.531 1.467-.531.642 0 1.14.177 1.494.531.36.354.54.843.54 1.467V9.11c0 .654-.174 1.152-.522 1.494-.348.336-.867.504-1.557.504Z"/></svg>