<svg xmlns="http://www.w3.org/2000/svg" width="17" height="16" fill="none"><path fill="gold" d="m8.01 0 7 4v8l-7 4-7-4V4l7-4Z"/><path fill="gold" d="m8.01 0 7 4v8l-7 4-7-4V4l7-4Z"/><path fill="#593A01" fill-opacity=".986" d="m8.01 1 6 3.5v7l-6 3.5-6-3.5v-7l6-3.5Z"/><path fill="#593A01" fill-opacity=".986" d="m8.01 1 6 3.5v7l-6 3.5-6-3.5v-7l6-3.5Z"/><path fill="gold" d="M7.946 11.12c-.447 0-.824-.07-1.13-.21a1.56 1.56 0 0 1-.68-.61 1.878 1.878 0 0 1-.22-.92c0-.067.033-.1.1-.1h.64c.066 0 .1.033.1.1 0 .32.096.567.29.74.2.167.493.25.88.25.453 0 .803-.093 1.05-.28.246-.193.37-.46.37-.8v-.26c0-.333-.117-.587-.35-.76-.227-.173-.567-.26-1.02-.26h-.87c-.067 0-.1-.033-.1-.1v-.54c0-.067.033-.1.1-.1h.88c.393 0 .69-.09.89-.27.206-.18.31-.443.31-.79v-.26c0-.293-.104-.51-.31-.65-.2-.147-.504-.22-.91-.22-.407 0-.71.08-.91.24-.194.153-.29.403-.29.75 0 .067-.034.1-.1.1h-.64a.096.096 0 0 1-.07-.03.096.096 0 0 1-.03-.07c0-.58.173-1.013.52-1.3.353-.293.883-.44 1.59-.44.68 0 1.183.137 1.51.41.326.267.49.687.49 1.26 0 .427-.09.773-.27 1.04a1.29 1.29 0 0 1-.7.53v.02c.386.127.67.323.85.59.186.26.28.6.28 1.02 0 .62-.194 1.097-.58 1.43-.387.327-.944.49-1.67.49Z"/></svg>