<svg xmlns="http://www.w3.org/2000/svg" width="16" height="16" fill="none"><path fill="gold" d="m8 0 7 4v8l-7 4-7-4V4l7-4Z"/><path fill="gold" d="m8 0 7 4v8l-7 4-7-4V4l7-4Z"/><path fill="#593A01" fill-opacity=".986" d="m8 1 6 3.5v7L8 15l-6-3.5v-7L8 1Z"/><path fill="#593A01" fill-opacity=".986" d="m8 1 6 3.5v7L8 15l-6-3.5v-7L8 1Z"/><path fill="gold" d="M5.398 11.108c-.402 0-.74-.063-1.017-.189a1.403 1.403 0 0 1-.612-.549 1.69 1.69 0 0 1-.198-.828c0-.06.03-.09.09-.09h.576c.06 0 .09.03.09.09 0 .288.087.51.261.666.18.15.444.225.792.225.408 0 .723-.084.945-.252.222-.174.333-.414.333-.72v-.234c0-.3-.105-.528-.315-.684-.204-.156-.51-.234-.918-.234h-.783c-.06 0-.09-.03-.09-.09v-.486c0-.06.03-.09.09-.09h.792c.354 0 .621-.081.801-.243.186-.162.28-.399.28-.711v-.234c0-.264-.094-.459-.28-.585-.18-.132-.453-.198-.819-.198-.366 0-.639.072-.819.216-.174.138-.26.363-.26.675 0 .06-.03.09-.09.09H3.67a.086.086 0 0 1-.063-.027.086.086 0 0 1-.027-.063c0-.522.156-.912.468-1.17.318-.264.795-.396 1.431-.396.612 0 1.065.123 1.36.369.293.24.44.618.44 1.134 0 .384-.08.696-.243.936a1.161 1.161 0 0 1-.63.477v.018c.348.114.603.291.765.531.168.234.252.54.252.918 0 .558-.174.987-.522 1.287-.348.294-.849.441-1.503.441Zm5.174 0c-.63 0-1.122-.18-1.476-.54-.354-.36-.531-.861-.531-1.503V7.04c0-.642.177-1.143.53-1.503.355-.36.847-.54 1.477-.54.63 0 1.122.18 1.476.54.354.36.53.861.53 1.503v2.025c0 .642-.176 1.143-.53 1.503-.354.36-.846.54-1.476.54Zm0-.675c.39 0 .693-.114.909-.342.222-.234.333-.552.333-.954V6.968c0-.408-.111-.726-.333-.954-.216-.228-.52-.342-.91-.342s-.695.114-.917.342c-.216.228-.324.546-.324.954v2.169c0 .402.108.72.324.954.222.228.528.342.918.342Z"/></svg>