<svg xmlns="http://www.w3.org/2000/svg" width="16" height="16" fill="none"><path fill="gold" d="m8 0 7 4v8l-7 4-7-4V4l7-4Z"/><path fill="gold" d="m8 0 7 4v8l-7 4-7-4V4l7-4Z"/><path fill="#593A01" fill-opacity=".986" d="m8 1 6 3.5v7L8 15l-6-3.5v-7L8 1Z"/><path fill="#593A01" fill-opacity=".986" d="m8 1 6 3.5v7L8 15l-6-3.5v-7L8 1Z"/><path fill="gold" d="M5.58 11.108c-.402 0-.741-.063-1.017-.189a1.403 1.403 0 0 1-.612-.549 1.69 1.69 0 0 1-.198-.828c0-.06.03-.09.09-.09h.576c.06 0 .09.03.09.09 0 .288.087.51.26.666.18.15.445.225.793.225.408 0 .723-.084.945-.252.222-.174.333-.414.333-.72v-.234c0-.3-.105-.528-.315-.684-.204-.156-.51-.234-.918-.234h-.783c-.06 0-.09-.03-.09-.09v-.486c0-.06.03-.09.09-.09h.792c.354 0 .62-.081.8-.243.187-.162.28-.399.28-.711v-.234c0-.264-.093-.459-.28-.585-.18-.132-.452-.198-.818-.198-.366 0-.64.072-.82.216-.173.138-.26.363-.26.675 0 .06-.03.09-.09.09h-.576a.086.086 0 0 1-.063-.027.086.086 0 0 1-.027-.063c0-.522.156-.912.468-1.17.318-.264.795-.396 1.43-.396.613 0 1.066.123 1.36.369.294.24.44.618.44 1.134 0 .384-.08.696-.242.936a1.161 1.161 0 0 1-.63.477v.018c.348.114.603.291.765.531.168.234.252.54.252.918 0 .558-.174.987-.522 1.287-.348.294-.85.441-1.503.441ZM8.593 11c-.06 0-.09-.03-.09-.09v-.513c0-.06.03-.09.09-.09h1.404V5.978l-1.35.423a.144.144 0 0 1-.072 0c-.012-.012-.018-.033-.018-.063v-.531c0-.048.018-.078.054-.09l1.881-.63a.17.17 0 0 1 .054-.009.296.296 0 0 1 .072-.009h.054c.06 0 .09.03.09.09v5.148h1.242c.06 0 .09.03.09.09v.513c0 .06-.03.09-.09.09h-3.41Z"/></svg>