<svg xmlns="http://www.w3.org/2000/svg" width="17" height="16" fill="none"><path fill="gold" d="m8.744 0 7 4v8l-7 4-7-4V4l7-4Z"/><path fill="gold" d="m8.744 0 7 4v8l-7 4-7-4V4l7-4Z"/><path fill="#593A01" fill-opacity=".986" d="m8.744 1 6 3.5v7l-6 3.5-6-3.5v-7l6-3.5Z"/><path fill="#593A01" fill-opacity=".986" d="m8.744 1 6 3.5v7l-6 3.5-6-3.5v-7l6-3.5Z"/><path fill="gold" d="M9.344 11c-.067 0-.1-.033-.1-.1V9.71h-3.3c-.067 0-.1-.033-.1-.1v-.13a.547.547 0 0 1 .03-.07l2.69-4.88c.033-.053.077-.08.13-.08h.66c.033 0 .057.01.07.03.02.02.02.047 0 .08l-2.42 4.38h2.25V6.75c0-.067.033-.1.1-.1h.61c.067 0 .1.033.1.1v2.19h.76c.067 0 .1.033.1.1v.57c0 .067-.033.1-.1.1h-.76v1.19c0 .067-.033.1-.1.1h-.62Z"/></svg>