<svg xmlns="http://www.w3.org/2000/svg" width="17" height="16" fill="none"><path fill="gold" d="m8.4 0 7 4v8l-7 4-7-4V4l7-4Z"/><path fill="gold" d="m8.4 0 7 4v8l-7 4-7-4V4l7-4Z"/><path fill="#593A01" fill-opacity=".986" d="m8.4 1 6 3.5v7l-6 3.5-6-3.5v-7l6-3.5Z"/><path fill="#593A01" fill-opacity=".986" d="m8.4 1 6 3.5v7l-6 3.5-6-3.5v-7l6-3.5Z"/><path fill="gold" d="M8.34 11.62c-.413 0-.767-.067-1.06-.2a1.477 1.477 0 0 1-.66-.58c-.147-.26-.22-.58-.22-.96 0-.033.01-.057.03-.07.02-.02.043-.03.07-.03h.63c.067 0 .1.033.1.1 0 .327.1.573.3.74.2.167.493.25.88.25.48 0 .827-.1 1.04-.3.213-.2.32-.51.32-.93v-.3c0-.293-.05-.533-.15-.72a.842.842 0 0 0-.45-.42c-.2-.093-.46-.14-.78-.14-.207 0-.46.033-.76.1a3.85 3.85 0 0 0-.85.28c-.053.027-.1.027-.14 0a.111.111 0 0 1-.04-.11l.3-3.28c.007-.067.04-.1.1-.1h3.14c.067 0 .1.033.1.1v.57c0 .067-.033.1-.1.1H7.65l-.13 1.76a4.499 4.499 0 0 1 1.09-.14c.627 0 1.117.177 1.47.53.36.353.54.877.54 1.57 0 .707-.197 1.247-.59 1.62-.387.373-.95.56-1.69.56Z"/></svg>