<svg xmlns="http://www.w3.org/2000/svg" width="17" height="17" fill="none"><path fill="gold" d="m8.962.895 7 4v8l-7 4-7-4v-8l7-4Z"/><path fill="gold" d="m8.962.895 7 4v8l-7 4-7-4v-8l7-4Z"/><path fill="#593A01" fill-opacity=".986" d="m8.962 1.895 6 3.5v7l-6 3.5-6-3.5v-7l6-3.5Z"/><path fill="#593A01" fill-opacity=".986" d="m8.962 1.895 6 3.5v7l-6 3.5-6-3.5v-7l6-3.5Z"/><path fill="gold" d="M8.9 12.12c-.7 0-1.247-.183-1.64-.55-.393-.367-.59-.9-.59-1.6V7.45c0-.667.2-1.187.6-1.56.4-.373.967-.56 1.7-.56.4 0 .743.057 1.03.17.293.107.52.263.68.47.16.2.24.443.24.73 0 .067-.033.1-.1.1h-.64c-.067 0-.1-.033-.1-.1 0-.193-.1-.343-.3-.45-.193-.113-.46-.17-.8-.17-.487 0-.853.11-1.1.33-.24.22-.36.557-.36 1.01v2.54c0 .44.12.787.36 1.04.247.247.583.37 1.01.37.433 0 .77-.127 1.01-.38s.36-.603.36-1.05v-.28c0-.36-.093-.63-.28-.81-.187-.187-.463-.28-.83-.28a2.4 2.4 0 0 0-.9.19 3.05 3.05 0 0 0-.87.53v-.72c.307-.247.623-.43.95-.55a2.87 2.87 0 0 1 1.03-.19c.58 0 1.017.163 1.31.49.293.32.44.797.44 1.43 0 .747-.193 1.33-.58 1.75-.38.413-.923.62-1.63.62Z"/></svg>