<svg xmlns="http://www.w3.org/2000/svg" width="17" height="17" fill="none"><path fill="gold" d="m8.51.895 7 4v8l-7 4-7-4v-8l7-4Z"/><path fill="gold" d="m8.51.895 7 4v8l-7 4-7-4v-8l7-4Z"/><path fill="#593A01" fill-opacity=".986" d="m8.51 1.895 6 3.5v7l-6 3.5-6-3.5v-7l6-3.5Z"/><path fill="#593A01" fill-opacity=".986" d="m8.51 1.895 6 3.5v7l-6 3.5-6-3.5v-7l6-3.5Z"/><path fill="gold" d="M7.51 11.895c-.033 0-.057-.01-.07-.03a.106.106 0 0 1 0-.09l2.58-5.66H7.4v.82c0 .067-.033.1-.1.1h-.64c-.067 0-.1-.033-.1-.1v-1.49c0-.067.033-.1.1-.1h4.39c.033 0 .057.01.07.03.02.013.03.037.03.07v.05a.327.327 0 0 1-.01.08c0 .02-.007.043-.02.07l-2.79 6.16a.198.198 0 0 1-.06.07.142.142 0 0 1-.08.02h-.68Z"/><path fill="gold" d="M7.51 11.895c-.033 0-.057-.01-.07-.03a.106.106 0 0 1 0-.09l2.58-5.66H7.4v.82c0 .067-.033.1-.1.1h-.64c-.067 0-.1-.033-.1-.1v-1.49c0-.067.033-.1.1-.1h4.39c.033 0 .057.01.07.03.02.013.03.037.03.07v.05a.327.327 0 0 1-.01.08c0 .02-.007.043-.02.07l-2.79 6.16a.198.198 0 0 1-.06.07.142.142 0 0 1-.08.02h-.68Z"/></svg>