<svg xmlns="http://www.w3.org/2000/svg" width="16" height="16" fill="none"><path fill="gold" d="m8 0 7 4v8l-7 4-7-4V4l7-4Z"/><path fill="gold" d="m8 0 7 4v8l-7 4-7-4V4l7-4Z"/><path fill="#593A01" fill-opacity=".986" d="m8 1 6 3.5v7L8 15l-6-3.5v-7L8 1Z"/><path fill="#593A01" fill-opacity=".986" d="m8 1 6 3.5v7L8 15l-6-3.5v-7L8 1Z"/><path fill="gold" d="M7.88 11.12c-.74 0-1.313-.153-1.72-.46-.407-.313-.61-.787-.61-1.42 0-.433.1-.797.3-1.09.207-.3.483-.513.83-.64-.287-.133-.5-.31-.64-.53-.14-.227-.21-.54-.21-.94 0-.527.177-.943.53-1.25.353-.307.86-.46 1.52-.46s1.167.153 1.52.46c.353.307.53.723.53 1.25 0 .4-.07.713-.21.94-.14.22-.353.397-.64.53.347.127.62.34.82.64.207.293.31.657.31 1.09 0 .633-.203 1.107-.61 1.42-.407.307-.98.46-1.72.46Zm0-.72c.493 0 .863-.097 1.11-.29.247-.193.37-.467.37-.82v-.17c0-.407-.133-.72-.4-.94-.26-.227-.62-.34-1.08-.34-.46 0-.823.113-1.09.34-.26.22-.39.533-.39.94v.17c0 .353.123.627.37.82.247.193.617.29 1.11.29Zm0-3.22c.387 0 .683-.09.89-.27.207-.18.31-.427.31-.74v-.15a.866.866 0 0 0-.31-.7c-.2-.18-.497-.27-.89-.27-.387 0-.683.09-.89.27a.866.866 0 0 0-.31.7v.15c0 .313.103.56.31.74.207.18.503.27.89.27Z"/></svg>