<svg xmlns="http://www.w3.org/2000/svg" width="16" height="16" fill="none"><path fill="gold" d="m8 0 7 4v8l-7 4-7-4V4l7-4Z"/><path fill="gold" d="m8 0 7 4v8l-7 4-7-4V4l7-4Z"/><path fill="#593A01" fill-opacity=".986" d="m8 1 6 3.5v7L8 15l-6-3.5v-7L8 1Z"/><path fill="#593A01" fill-opacity=".986" d="m8 1 6 3.5v7L8 15l-6-3.5v-7L8 1Z"/><path fill="gold" d="M7.82 11.12c-.647 0-1.147-.137-1.5-.41-.353-.273-.53-.667-.53-1.18 0-.067.033-.1.1-.1h.64c.067 0 .1.033.1.1 0 .2.1.39.3.57.207.18.507.27.9.27.493 0 .857-.12 1.09-.36.24-.24.36-.593.36-1.06V6.49c0-.44-.127-.783-.38-1.03-.253-.253-.6-.38-1.04-.38-.287 0-.53.057-.73.17a1.08 1.08 0 0 0-.46.47c-.1.207-.15.463-.15.77v.38c0 .327.103.583.31.77.207.187.493.28.86.28.293 0 .583-.06.87-.18.293-.12.58-.303.86-.55l.01.72a3.59 3.59 0 0 1-.92.58c-.287.113-.6.17-.94.17-.62 0-1.093-.173-1.42-.52-.32-.347-.48-.85-.48-1.51 0-.747.19-1.317.57-1.71.38-.393.923-.59 1.63-.59.713 0 1.267.197 1.66.59.4.393.6.937.6 1.63V8.9c0 .727-.193 1.28-.58 1.66-.387.373-.963.56-1.73.56Z"/></svg>