<svg width="127" height="140" viewBox="0 0 127 140" fill="none" xmlns="http://www.w3.org/2000/svg">
<path d="M113 8L120 12V20L113 24L106 20V12L113 8Z" fill="#FFD700"/>
<path d="M113 8L120 12V20L113 24L106 20V12L113 8Z" fill="#FFD700"/>
<path d="M113 9L119 12.5V19.5L113 23L107 19.5V12.5L113 9Z" fill="#593A01" fill-opacity="0.986"/>
<path d="M113 9L119 12.5V19.5L113 23L107 19.5V12.5L113 9Z" fill="#593A01" fill-opacity="0.986"/>
<path d="M112.938 19.225C112.238 19.225 111.691 19.0417 111.298 18.675C110.904 18.3083 110.708 17.775 110.708 17.075V14.555C110.708 13.8883 110.908 13.3683 111.308 12.995C111.708 12.6217 112.274 12.435 113.008 12.435C113.408 12.435 113.751 12.4917 114.038 12.605C114.331 12.7117 114.558 12.8683 114.718 13.075C114.878 13.275 114.958 13.5183 114.958 13.805C114.958 13.8717 114.924 13.905 114.858 13.905H114.218C114.151 13.905 114.118 13.8717 114.118 13.805C114.118 13.6117 114.018 13.4617 113.818 13.355C113.624 13.2417 113.358 13.185 113.018 13.185C112.531 13.185 112.164 13.295 111.918 13.515C111.678 13.735 111.558 14.0717 111.558 14.525V17.065C111.558 17.505 111.678 17.8517 111.918 18.105C112.164 18.3517 112.501 18.475 112.928 18.475C113.361 18.475 113.698 18.3483 113.938 18.095C114.178 17.8417 114.298 17.4917 114.298 17.045V16.765C114.298 16.405 114.204 16.135 114.018 15.955C113.831 15.7683 113.554 15.675 113.188 15.675C112.901 15.675 112.601 15.7383 112.288 15.865C111.981 15.985 111.691 16.1617 111.418 16.395V15.675C111.724 15.4283 112.041 15.245 112.368 15.125C112.701 14.9983 113.044 14.935 113.398 14.935C113.978 14.935 114.414 15.0983 114.708 15.425C115.001 15.745 115.148 16.2217 115.148 16.855C115.148 17.6017 114.954 18.185 114.568 18.605C114.188 19.0183 113.644 19.225 112.938 19.225Z" fill="#FFD700"/>
<path d="M53 30L60 34V42L53 46L46 42V34L53 30Z" fill="#FFD700"/>
<path d="M53 30L60 34V42L53 46L46 42V34L53 30Z" fill="#FFD700"/>
<path d="M53 31L59 34.5V41.5L53 45L47 41.5V34.5L53 31Z" fill="#593A01" fill-opacity="0.986"/>
<path d="M53 31L59 34.5V41.5L53 45L47 41.5V34.5L53 31Z" fill="#593A01" fill-opacity="0.986"/>
<path d="M52.82 41.12C52.1733 41.12 51.6733 40.9833 51.32 40.71C50.9667 40.4367 50.79 40.0433 50.79 39.53C50.79 39.4633 50.8233 39.43 50.89 39.43H51.53C51.5967 39.43 51.63 39.4633 51.63 39.53C51.63 39.73 51.73 39.92 51.93 40.1C52.1367 40.28 52.4367 40.37 52.83 40.37C53.3233 40.37 53.6867 40.25 53.92 40.01C54.16 39.77 54.28 39.4167 54.28 38.95V36.49C54.28 36.05 54.1533 35.7067 53.9 35.46C53.6467 35.2067 53.3 35.08 52.86 35.08C52.5733 35.08 52.33 35.1367 52.13 35.25C51.93 35.3567 51.7767 35.5133 51.67 35.72C51.57 35.9267 51.52 36.1833 51.52 36.49V36.87C51.52 37.1967 51.6233 37.4533 51.83 37.64C52.0367 37.8267 52.3233 37.92 52.69 37.92C52.9833 37.92 53.2733 37.86 53.56 37.74C53.8533 37.62 54.14 37.4367 54.42 37.19L54.43 37.91C54.11 38.1767 53.8033 38.37 53.51 38.49C53.2233 38.6033 52.91 38.66 52.57 38.66C51.95 38.66 51.4767 38.4867 51.15 38.14C50.83 37.7933 50.67 37.29 50.67 36.63C50.67 35.8833 50.86 35.3133 51.24 34.92C51.62 34.5267 52.1633 34.33 52.87 34.33C53.5833 34.33 54.1367 34.5267 54.53 34.92C54.93 35.3133 55.13 35.8567 55.13 36.55V38.9C55.13 39.6267 54.9367 40.18 54.55 40.56C54.1633 40.9333 53.5867 41.12 52.82 41.12Z" fill="#FFD700"/>
<path d="M73 30L80 34V42L73 46L66 42V34L73 30Z" fill="#FFD700"/>
<path d="M73 30L80 34V42L73 46L66 42V34L73 30Z" fill="#FFD700"/>
<path d="M73 31L79 34.5V41.5L73 45L67 41.5V34.5L73 31Z" fill="#593A01" fill-opacity="0.986"/>
<path d="M73 31L79 34.5V41.5L73 45L67 41.5V34.5L73 31Z" fill="#593A01" fill-opacity="0.986"/>
<path d="M68.9745 40.5C68.9145 40.5 68.8845 40.47 68.8845 40.41V39.897C68.8845 39.837 68.9145 39.807 68.9745 39.807H70.3785V35.478L69.0285 35.901C68.9985 35.907 68.9745 35.907 68.9565 35.901C68.9445 35.889 68.9385 35.868 68.9385 35.838V35.307C68.9385 35.259 68.9565 35.229 68.9925 35.217L70.8735 34.587C70.8915 34.581 70.9095 34.578 70.9275 34.578C70.9515 34.572 70.9755 34.569 70.9995 34.569H71.0535C71.1135 34.569 71.1435 34.599 71.1435 34.659V39.807H72.3855C72.4455 39.807 72.4755 39.837 72.4755 39.897V40.41C72.4755 40.47 72.4455 40.5 72.3855 40.5H68.9745ZM75.2214 40.608C74.5914 40.608 74.0994 40.428 73.7454 40.068C73.3914 39.708 73.2144 39.207 73.2144 38.565V36.54C73.2144 35.898 73.3914 35.397 73.7454 35.037C74.0994 34.677 74.5914 34.497 75.2214 34.497C75.8514 34.497 76.3434 34.677 76.6974 35.037C77.0514 35.397 77.2284 35.898 77.2284 36.54V38.565C77.2284 39.207 77.0514 39.708 76.6974 40.068C76.3434 40.428 75.8514 40.608 75.2214 40.608ZM75.2214 39.933C75.6114 39.933 75.9144 39.819 76.1304 39.591C76.3524 39.357 76.4634 39.039 76.4634 38.637V36.468C76.4634 36.06 76.3524 35.742 76.1304 35.514C75.9144 35.286 75.6114 35.172 75.2214 35.172C74.8314 35.172 74.5254 35.286 74.3034 35.514C74.0874 35.742 73.9794 36.06 73.9794 36.468V38.637C73.9794 39.039 74.0874 39.357 74.3034 39.591C74.5254 39.819 74.8314 39.933 75.2214 39.933Z" fill="#FFD700"/>
<path d="M13 52L20 56V64L13 68L6 64V56L13 52Z" fill="#FFD700"/>
<path d="M13 52L20 56V64L13 68L6 64V56L13 52Z" fill="#FFD700"/>
<path d="M13 53L19 56.5V63.5L13 67L7 63.5V56.5L13 53Z" fill="#593A01" fill-opacity="0.986"/>
<path d="M13 53L19 56.5V63.5L13 67L7 63.5V56.5L13 53Z" fill="#593A01" fill-opacity="0.986"/>
<path d="M9.00911 62.5985C8.94911 62.5985 8.91911 62.5685 8.91911 62.5085V61.9955C8.91911 61.9355 8.94911 61.9055 9.00911 61.9055H10.4131V57.5765L9.06311 57.9995C9.03311 58.0055 9.00911 58.0055 8.99111 57.9995C8.97911 57.9875 8.97311 57.9665 8.97311 57.9365V57.4055C8.97311 57.3575 8.99111 57.3275 9.02711 57.3155L10.9081 56.6855C10.9261 56.6795 10.9441 56.6765 10.9621 56.6765C10.9861 56.6705 11.0101 56.6675 11.0341 56.6675H11.0881C11.1481 56.6675 11.1781 56.6975 11.1781 56.7575V61.9055H12.4201C12.4801 61.9055 12.5101 61.9355 12.5101 61.9955V62.5085C12.5101 62.5685 12.4801 62.5985 12.4201 62.5985H9.00911ZM15.013 62.7065C14.611 62.7065 14.272 62.6435 13.996 62.5175C13.726 62.3855 13.522 62.2025 13.384 61.9685C13.252 61.7285 13.186 61.4525 13.186 61.1405C13.186 61.0805 13.216 61.0505 13.276 61.0505H13.852C13.912 61.0505 13.942 61.0805 13.942 61.1405C13.942 61.4285 14.029 61.6505 14.203 61.8065C14.383 61.9565 14.647 62.0315 14.995 62.0315C15.403 62.0315 15.718 61.9475 15.94 61.7795C16.162 61.6055 16.273 61.3655 16.273 61.0595V60.8255C16.273 60.5255 16.168 60.2975 15.958 60.1415C15.754 59.9855 15.448 59.9075 15.04 59.9075H14.257C14.197 59.9075 14.167 59.8775 14.167 59.8175V59.3315C14.167 59.2715 14.197 59.2415 14.257 59.2415H15.049C15.403 59.2415 15.67 59.1605 15.85 58.9985C16.036 58.8365 16.129 58.5995 16.129 58.2875V58.0535C16.129 57.7895 16.036 57.5945 15.85 57.4685C15.67 57.3365 15.397 57.2705 15.031 57.2705C14.665 57.2705 14.392 57.3425 14.212 57.4865C14.038 57.6245 13.951 57.8495 13.951 58.1615C13.951 58.2215 13.921 58.2515 13.861 58.2515H13.285C13.261 58.2515 13.24 58.2425 13.222 58.2245C13.204 58.2065 13.195 58.1855 13.195 58.1615C13.195 57.6395 13.351 57.2495 13.663 56.9915C13.981 56.7275 14.458 56.5955 15.094 56.5955C15.706 56.5955 16.159 56.7185 16.453 56.9645C16.747 57.2045 16.894 57.5825 16.894 58.0985C16.894 58.4825 16.813 58.7945 16.651 59.0345C16.495 59.2685 16.285 59.4275 16.021 59.5115V59.5295C16.369 59.6435 16.624 59.8205 16.786 60.0605C16.954 60.2945 17.038 60.6005 17.038 60.9785C17.038 61.5365 16.864 61.9655 16.516 62.2655C16.168 62.5595 15.667 62.7065 15.013 62.7065Z" fill="#FFD700"/>
<path d="M33 52L40 56V64L33 68L26 64V56L33 52Z" fill="#FFD700"/>
<path d="M33 52L40 56V64L33 68L26 64V56L33 52Z" fill="#FFD700"/>
<path d="M33 53L39 56.5V63.5L33 67L27 63.5V56.5L33 53Z" fill="#593A01" fill-opacity="0.986"/>
<path d="M33 53L39 56.5V63.5L33 67L27 63.5V56.5L33 53Z" fill="#593A01" fill-opacity="0.986"/>
<path d="M28.8873 62.5985C28.8273 62.5985 28.7973 62.5685 28.7973 62.5085V61.9955C28.7973 61.9355 28.8273 61.9055 28.8873 61.9055H30.2913V57.5765L28.9413 57.9995C28.9113 58.0055 28.8873 58.0055 28.8693 57.9995C28.8573 57.9875 28.8513 57.9665 28.8513 57.9365V57.4055C28.8513 57.3575 28.8693 57.3275 28.9053 57.3155L30.7863 56.6855C30.8043 56.6795 30.8223 56.6765 30.8403 56.6765C30.8643 56.6705 30.8883 56.6675 30.9123 56.6675H30.9663C31.0263 56.6675 31.0563 56.6975 31.0563 56.7575V61.9055H32.2983C32.3583 61.9055 32.3883 61.9355 32.3883 61.9955V62.5085C32.3883 62.5685 32.3583 62.5985 32.2983 62.5985H28.8873ZM35.7642 62.5985C35.7042 62.5985 35.6742 62.5685 35.6742 62.5085V61.4375H32.7042C32.6442 61.4375 32.6142 61.4075 32.6142 61.3475V61.2935C32.6142 61.2635 32.6142 61.2425 32.6142 61.2305C32.6202 61.2125 32.6292 61.1915 32.6412 61.1675L35.0622 56.7755C35.0922 56.7275 35.1312 56.7035 35.1792 56.7035H35.7732C35.8032 56.7035 35.8242 56.7125 35.8362 56.7305C35.8542 56.7485 35.8542 56.7725 35.8362 56.8025L33.6582 60.7445H35.6832V58.7735C35.6832 58.7135 35.7132 58.6835 35.7732 58.6835H36.3222C36.3822 58.6835 36.4122 58.7135 36.4122 58.7735V60.7445H37.0962C37.1562 60.7445 37.1862 60.7745 37.1862 60.8345V61.3475C37.1862 61.4075 37.1562 61.4375 37.0962 61.4375H36.4122V62.5085C36.4122 62.5685 36.3822 62.5985 36.3222 62.5985H35.7642Z" fill="#FFD700"/>
<path d="M53 52L60 56V64L53 68L46 64V56L53 52Z" fill="#FFD700"/>
<path d="M53 52L60 56V64L53 68L46 64V56L53 52Z" fill="#FFD700"/>
<path d="M53 53L59 56.5V63.5L53 67L47 63.5V56.5L53 53Z" fill="#593A01" fill-opacity="0.986"/>
<path d="M53 53L59 56.5V63.5L53 67L47 63.5V56.5L53 53Z" fill="#593A01" fill-opacity="0.986"/>
<path d="M49.1257 62.5985C49.0657 62.5985 49.0357 62.5685 49.0357 62.5085V61.9955C49.0357 61.9355 49.0657 61.9055 49.1257 61.9055H50.5297V57.5765L49.1797 57.9995C49.1497 58.0055 49.1257 58.0055 49.1077 57.9995C49.0957 57.9875 49.0897 57.9665 49.0897 57.9365V57.4055C49.0897 57.3575 49.1077 57.3275 49.1437 57.3155L51.0247 56.6855C51.0427 56.6795 51.0607 56.6765 51.0787 56.6765C51.1027 56.6705 51.1267 56.6675 51.1507 56.6675H51.2047C51.2647 56.6675 51.2947 56.6975 51.2947 56.7575V61.9055H52.5367C52.5967 61.9055 52.6267 61.9355 52.6267 61.9955V62.5085C52.6267 62.5685 52.5967 62.5985 52.5367 62.5985H49.1257ZM54.9586 62.7065C54.5866 62.7065 54.2686 62.6465 54.0046 62.5265C53.7466 62.4065 53.5486 62.2325 53.4106 62.0045C53.2786 61.7705 53.2126 61.4825 53.2126 61.1405C53.2126 61.1105 53.2216 61.0895 53.2396 61.0775C53.2576 61.0595 53.2786 61.0505 53.3026 61.0505H53.8696C53.9296 61.0505 53.9596 61.0805 53.9596 61.1405C53.9596 61.4345 54.0496 61.6565 54.2296 61.8065C54.4096 61.9565 54.6736 62.0315 55.0216 62.0315C55.4536 62.0315 55.7656 61.9415 55.9576 61.7615C56.1496 61.5815 56.2456 61.3025 56.2456 60.9245V60.6545C56.2456 60.3905 56.2006 60.1745 56.1106 60.0065C56.0266 59.8325 55.8916 59.7065 55.7056 59.6285C55.5256 59.5445 55.2916 59.5025 55.0036 59.5025C54.8176 59.5025 54.5896 59.5325 54.3196 59.5925C54.0556 59.6465 53.8006 59.7305 53.5546 59.8445C53.5066 59.8685 53.4646 59.8685 53.4286 59.8445C53.3986 59.8205 53.3866 59.7875 53.3926 59.7455L53.6626 56.7935C53.6686 56.7335 53.6986 56.7035 53.7526 56.7035H56.5786C56.6386 56.7035 56.6686 56.7335 56.6686 56.7935V57.3065C56.6686 57.3665 56.6386 57.3965 56.5786 57.3965H54.3376L54.2206 58.9805C54.4126 58.9325 54.5896 58.8995 54.7516 58.8815C54.9196 58.8635 55.0696 58.8545 55.2016 58.8545C55.7656 58.8545 56.2066 59.0135 56.5246 59.3315C56.8486 59.6495 57.0106 60.1205 57.0106 60.7445C57.0106 61.3805 56.8336 61.8665 56.4796 62.2025C56.1316 62.5385 55.6246 62.7065 54.9586 62.7065Z" fill="#FFD700"/>
<path d="M73 52L80 56V64L73 68L66 64V56L73 52Z" fill="#FFD700"/>
<path d="M73 52L80 56V64L73 68L66 64V56L73 52Z" fill="#FFD700"/>
<path d="M73 53L79 56.5V63.5L73 67L67 63.5V56.5L73 53Z" fill="#593A01" fill-opacity="0.986"/>
<path d="M73 53L79 56.5V63.5L73 67L67 63.5V56.5L73 53Z" fill="#593A01" fill-opacity="0.986"/>
<path d="M68.8442 63C68.7842 63 68.7542 62.97 68.7542 62.91V62.397C68.7542 62.337 68.7842 62.307 68.8442 62.307H70.2482V57.978L68.8982 58.401C68.8682 58.407 68.8442 58.407 68.8262 58.401C68.8142 58.389 68.8082 58.368 68.8082 58.338V57.807C68.8082 57.759 68.8262 57.729 68.8622 57.717L70.7432 57.087C70.7612 57.081 70.7792 57.078 70.7972 57.078C70.8212 57.072 70.8452 57.069 70.8692 57.069H70.9232C70.9832 57.069 71.0132 57.099 71.0132 57.159V62.307H72.2552C72.3152 62.307 72.3452 62.337 72.3452 62.397V62.91C72.3452 62.97 72.3152 63 72.2552 63H68.8442ZM75.0911 63.108C74.4611 63.108 73.9691 62.943 73.6151 62.613C73.2611 62.283 73.0841 61.803 73.0841 61.173V58.905C73.0841 58.305 73.2641 57.837 73.6241 57.501C73.9841 57.165 74.4941 56.997 75.1541 56.997C75.5141 56.997 75.8231 57.048 76.0811 57.15C76.3451 57.246 76.5491 57.387 76.6931 57.573C76.8371 57.753 76.9091 57.972 76.9091 58.23C76.9091 58.29 76.8791 58.32 76.8191 58.32H76.2431C76.1831 58.32 76.1531 58.29 76.1531 58.23C76.1531 58.056 76.0631 57.921 75.8831 57.825C75.7091 57.723 75.4691 57.672 75.1631 57.672C74.7251 57.672 74.3951 57.771 74.1731 57.969C73.9571 58.167 73.8491 58.47 73.8491 58.878V61.164C73.8491 61.56 73.9571 61.872 74.1731 62.1C74.3951 62.322 74.6981 62.433 75.0821 62.433C75.4721 62.433 75.7751 62.319 75.9911 62.091C76.2071 61.863 76.3151 61.548 76.3151 61.146V60.894C76.3151 60.57 76.2311 60.327 76.0631 60.165C75.8951 59.997 75.6461 59.913 75.3161 59.913C75.0581 59.913 74.7881 59.97 74.5061 60.084C74.2301 60.192 73.9691 60.351 73.7231 60.561V59.913C73.9991 59.691 74.2841 59.526 74.5781 59.418C74.8781 59.304 75.1871 59.247 75.5051 59.247C76.0271 59.247 76.4201 59.394 76.6841 59.688C76.9481 59.976 77.0801 60.405 77.0801 60.975C77.0801 61.647 76.9061 62.172 76.5581 62.55C76.2161 62.922 75.7271 63.108 75.0911 63.108Z" fill="#FFD700"/>
<path d="M93 52L100 56V64L93 68L86 64V56L93 52Z" fill="#FFD700"/>
<path d="M93 52L100 56V64L93 68L86 64V56L93 52Z" fill="#FFD700"/>
<path d="M93 53L99 56.5V63.5L93 67L87 63.5V56.5L93 53Z" fill="#593A01" fill-opacity="0.986"/>
<path d="M93 53L99 56.5V63.5L93 67L87 63.5V56.5L93 53Z" fill="#593A01" fill-opacity="0.986"/>
<path d="M89.0057 63C88.9457 63 88.9157 62.97 88.9157 62.91V62.397C88.9157 62.337 88.9457 62.307 89.0057 62.307H90.4097V57.978L89.0597 58.401C89.0297 58.407 89.0057 58.407 88.9877 58.401C88.9757 58.389 88.9697 58.368 88.9697 58.338V57.807C88.9697 57.759 88.9877 57.729 89.0237 57.717L90.9047 57.087C90.9227 57.081 90.9407 57.078 90.9587 57.078C90.9827 57.072 91.0067 57.069 91.0307 57.069H91.0847C91.1447 57.069 91.1747 57.099 91.1747 57.159V62.307H92.4167C92.4767 62.307 92.5067 62.337 92.5067 62.397V62.91C92.5067 62.97 92.4767 63 92.4167 63H89.0057ZM93.9398 63C93.9098 63 93.8888 62.991 93.8768 62.973C93.8648 62.949 93.8648 62.922 93.8768 62.892L96.1988 57.798H93.8408V58.536C93.8408 58.596 93.8108 58.626 93.7508 58.626H93.1748C93.1148 58.626 93.0848 58.596 93.0848 58.536V57.195C93.0848 57.135 93.1148 57.105 93.1748 57.105H97.1258C97.1558 57.105 97.1768 57.114 97.1888 57.132C97.2068 57.144 97.2158 57.165 97.2158 57.195V57.24C97.2158 57.264 97.2128 57.288 97.2068 57.312C97.2068 57.33 97.2008 57.351 97.1888 57.375L94.6778 62.919C94.6658 62.943 94.6478 62.964 94.6238 62.982C94.6058 62.994 94.5818 63 94.5518 63H93.9398Z" fill="#FFD700"/>
<path d="M113 52L120 56V64L113 68L106 64V56L113 52Z" fill="#FFD700"/>
<path d="M113 52L120 56V64L113 68L106 64V56L113 52Z" fill="#FFD700"/>
<path d="M113 53L119 56.5V63.5L113 67L107 63.5V56.5L113 53Z" fill="#593A01" fill-opacity="0.986"/>
<path d="M113 53L119 56.5V63.5L113 67L107 63.5V56.5L113 53Z" fill="#593A01" fill-opacity="0.986"/>
<path d="M109.009 63C108.949 63 108.919 62.97 108.919 62.91V62.397C108.919 62.337 108.949 62.307 109.009 62.307H110.413V57.978L109.063 58.401C109.033 58.407 109.009 58.407 108.991 58.401C108.979 58.389 108.973 58.368 108.973 58.338V57.807C108.973 57.759 108.991 57.729 109.027 57.717L110.908 57.087C110.926 57.081 110.944 57.078 110.962 57.078C110.986 57.072 111.01 57.069 111.034 57.069H111.088C111.148 57.069 111.178 57.099 111.178 57.159V62.307H112.42C112.48 62.307 112.51 62.337 112.51 62.397V62.91C112.51 62.97 112.48 63 112.42 63H109.009ZM115.238 63.108C114.572 63.108 114.056 62.97 113.69 62.694C113.324 62.412 113.141 61.986 113.141 61.416C113.141 61.026 113.231 60.699 113.411 60.435C113.597 60.165 113.846 59.973 114.158 59.859C113.9 59.739 113.708 59.58 113.582 59.382C113.456 59.178 113.393 58.896 113.393 58.536C113.393 58.062 113.552 57.687 113.87 57.411C114.188 57.135 114.644 56.997 115.238 56.997C115.832 56.997 116.288 57.135 116.606 57.411C116.924 57.687 117.083 58.062 117.083 58.536C117.083 58.896 117.02 59.178 116.894 59.382C116.768 59.58 116.576 59.739 116.318 59.859C116.63 59.973 116.876 60.165 117.056 60.435C117.242 60.699 117.335 61.026 117.335 61.416C117.335 61.986 117.152 62.412 116.786 62.694C116.42 62.97 115.904 63.108 115.238 63.108ZM115.238 62.46C115.682 62.46 116.015 62.373 116.237 62.199C116.459 62.025 116.57 61.779 116.57 61.461V61.308C116.57 60.942 116.45 60.66 116.21 60.462C115.976 60.258 115.652 60.156 115.238 60.156C114.824 60.156 114.497 60.258 114.257 60.462C114.023 60.66 113.906 60.942 113.906 61.308V61.461C113.906 61.779 114.017 62.025 114.239 62.199C114.461 62.373 114.794 62.46 115.238 62.46ZM115.238 59.562C115.586 59.562 115.853 59.481 116.039 59.319C116.225 59.157 116.318 58.935 116.318 58.653V58.518C116.318 58.254 116.225 58.044 116.039 57.888C115.859 57.726 115.592 57.645 115.238 57.645C114.89 57.645 114.623 57.726 114.437 57.888C114.251 58.044 114.158 58.254 114.158 58.518V58.653C114.158 58.935 114.251 59.157 114.437 59.319C114.623 59.481 114.89 59.562 115.238 59.562Z" fill="#FFD700"/>
<path d="M13 74L20 78V86L13 90L6 86V78L13 74Z" fill="#FFD700"/>
<path d="M13 74L20 78V86L13 90L6 86V78L13 74Z" fill="#FFD700"/>
<path d="M13 75L19 78.5V85.5L13 89L7 85.5V78.5L13 75Z" fill="#593A01" fill-opacity="0.986"/>
<path d="M13 75L19 78.5V85.5L13 89L7 85.5V78.5L13 75Z" fill="#593A01" fill-opacity="0.986"/>
<path d="M8.88726 85C8.82726 85 8.79726 84.97 8.79726 84.91V84.397C8.79726 84.337 8.82726 84.307 8.88726 84.307H10.2913V79.978L8.94126 80.401C8.91126 80.407 8.88726 80.407 8.86926 80.401C8.85726 80.389 8.85126 80.368 8.85126 80.338V79.807C8.85126 79.759 8.86926 79.729 8.90526 79.717L10.7863 79.087C10.8043 79.081 10.8223 79.078 10.8403 79.078C10.8643 79.072 10.8883 79.069 10.9123 79.069H10.9663C11.0263 79.069 11.0563 79.099 11.0563 79.159V84.307H12.2983C12.3583 84.307 12.3883 84.337 12.3883 84.397V84.91C12.3883 84.97 12.3583 85 12.2983 85H8.88726ZM15.0622 85.108C14.4802 85.108 14.0302 84.985 13.7122 84.739C13.3942 84.493 13.2352 84.139 13.2352 83.677C13.2352 83.617 13.2652 83.587 13.3252 83.587H13.9012C13.9612 83.587 13.9912 83.617 13.9912 83.677C13.9912 83.857 14.0812 84.028 14.2612 84.19C14.4472 84.352 14.7172 84.433 15.0712 84.433C15.5152 84.433 15.8422 84.325 16.0522 84.109C16.2682 83.893 16.3762 83.575 16.3762 83.155V80.941C16.3762 80.545 16.2622 80.236 16.0342 80.014C15.8062 79.786 15.4942 79.672 15.0982 79.672C14.8402 79.672 14.6212 79.723 14.4412 79.825C14.2612 79.921 14.1232 80.062 14.0272 80.248C13.9372 80.434 13.8922 80.665 13.8922 80.941V81.283C13.8922 81.577 13.9852 81.808 14.1712 81.976C14.3572 82.144 14.6152 82.228 14.9452 82.228C15.2092 82.228 15.4702 82.174 15.7282 82.066C15.9922 81.958 16.2502 81.793 16.5022 81.571L16.5112 82.219C16.2232 82.459 15.9472 82.633 15.6832 82.741C15.4252 82.843 15.1432 82.894 14.8372 82.894C14.2792 82.894 13.8532 82.738 13.5592 82.426C13.2712 82.114 13.1272 81.661 13.1272 81.067C13.1272 80.395 13.2982 79.882 13.6402 79.528C13.9822 79.174 14.4712 78.997 15.1072 78.997C15.7492 78.997 16.2472 79.174 16.6012 79.528C16.9612 79.882 17.1412 80.371 17.1412 80.995V83.11C17.1412 83.764 16.9672 84.262 16.6192 84.604C16.2712 84.94 15.7522 85.108 15.0622 85.108Z" fill="#FFD700"/>
<path d="M113 75L120 79V87L113 91L106 87V79L113 75Z" fill="#FFD700"/>
<path d="M113 75L120 79V87L113 91L106 87V79L113 75Z" fill="#FFD700"/>
<path d="M113 76L119 79.5V86.5L113 90L107 86.5V79.5L113 76Z" fill="#593A01" fill-opacity="0.986"/>
<path d="M113 76L119 79.5V86.5L113 90L107 86.5V79.5L113 76Z" fill="#593A01" fill-opacity="0.986"/>
<path d="M108.613 86C108.553 86 108.523 85.97 108.523 85.91V85.289C108.523 85.001 108.574 84.746 108.676 84.524C108.784 84.296 108.925 84.095 109.099 83.921C109.273 83.747 109.462 83.588 109.666 83.444C109.876 83.294 110.083 83.153 110.287 83.021C110.497 82.883 110.689 82.748 110.863 82.616C111.037 82.478 111.175 82.331 111.277 82.175C111.385 82.013 111.439 81.833 111.439 81.635V81.446C111.439 81.188 111.346 80.996 111.16 80.87C110.98 80.738 110.713 80.672 110.359 80.672C110.005 80.672 109.741 80.75 109.567 80.906C109.399 81.062 109.315 81.281 109.315 81.563C109.315 81.623 109.288 81.653 109.234 81.653H108.649C108.589 81.653 108.559 81.623 108.559 81.563C108.559 81.227 108.628 80.942 108.766 80.708C108.904 80.474 109.111 80.297 109.387 80.177C109.669 80.057 110.02 79.997 110.44 79.997C111.034 79.997 111.475 80.123 111.763 80.375C112.057 80.627 112.204 80.996 112.204 81.482C112.204 81.8 112.15 82.073 112.042 82.301C111.94 82.523 111.802 82.721 111.628 82.895C111.46 83.063 111.271 83.216 111.061 83.354C110.857 83.486 110.653 83.615 110.449 83.741C110.245 83.867 110.056 84.002 109.882 84.146C109.714 84.29 109.576 84.455 109.468 84.641C109.366 84.827 109.315 85.049 109.315 85.307H112.087C112.147 85.307 112.177 85.337 112.177 85.397V85.91C112.177 85.97 112.147 86 112.087 86H108.613ZM115.914 86C115.854 86 115.824 85.97 115.824 85.91V84.839H112.854C112.794 84.839 112.764 84.809 112.764 84.749V84.695C112.764 84.665 112.764 84.644 112.764 84.632C112.77 84.614 112.779 84.593 112.791 84.569L115.212 80.177C115.242 80.129 115.281 80.105 115.329 80.105H115.923C115.953 80.105 115.974 80.114 115.986 80.132C116.004 80.15 116.004 80.174 115.986 80.204L113.808 84.146H115.833V82.175C115.833 82.115 115.863 82.085 115.923 82.085H116.472C116.532 82.085 116.562 82.115 116.562 82.175V84.146H117.246C117.306 84.146 117.336 84.176 117.336 84.236V84.749C117.336 84.809 117.306 84.839 117.246 84.839H116.562V85.91C116.562 85.97 116.532 86 116.472 86H115.914Z" fill="#FFD700"/>
<path d="M33 96L40 100V108L33 112L26 108V100L33 96Z" fill="#FFD700"/>
<path d="M33 96L40 100V108L33 112L26 108V100L33 96Z" fill="#FFD700"/>
<path d="M33 97L39 100.5V107.5L33 111L27 107.5V100.5L33 97Z" fill="#593A01" fill-opacity="0.986"/>
<path d="M33 97L39 100.5V107.5L33 111L27 107.5V100.5L33 97Z" fill="#593A01" fill-opacity="0.986"/>
<path d="M28.7511 106.5C28.6911 106.5 28.6611 106.47 28.6611 106.41V105.789C28.6611 105.501 28.7121 105.246 28.8141 105.024C28.9221 104.796 29.0631 104.595 29.2371 104.421C29.4111 104.247 29.6001 104.088 29.8041 103.944C30.0141 103.794 30.2211 103.653 30.4251 103.521C30.6351 103.383 30.8271 103.248 31.0011 103.116C31.1751 102.978 31.3131 102.831 31.4151 102.675C31.5231 102.513 31.5771 102.333 31.5771 102.135V101.946C31.5771 101.688 31.4841 101.496 31.2981 101.37C31.1181 101.238 30.8511 101.172 30.4971 101.172C30.1431 101.172 29.8791 101.25 29.7051 101.406C29.5371 101.562 29.4531 101.781 29.4531 102.063C29.4531 102.123 29.4261 102.153 29.3721 102.153H28.7871C28.7271 102.153 28.6971 102.123 28.6971 102.063C28.6971 101.727 28.7661 101.442 28.9041 101.208C29.0421 100.974 29.2491 100.797 29.5251 100.677C29.8071 100.557 30.1581 100.497 30.5781 100.497C31.1721 100.497 31.6131 100.623 31.9011 100.875C32.1951 101.127 32.3421 101.496 32.3421 101.982C32.3421 102.3 32.2881 102.573 32.1801 102.801C32.0781 103.023 31.9401 103.221 31.7661 103.395C31.5981 103.563 31.4091 103.716 31.1991 103.854C30.9951 103.986 30.7911 104.115 30.5871 104.241C30.3831 104.367 30.1941 104.502 30.0201 104.646C29.8521 104.79 29.7141 104.955 29.6061 105.141C29.5041 105.327 29.4531 105.549 29.4531 105.807H32.2251C32.2851 105.807 32.3151 105.837 32.3151 105.897V106.41C32.3151 106.47 32.2851 106.5 32.2251 106.5H28.7511ZM35.5014 106.608C34.8714 106.608 34.3794 106.443 34.0254 106.113C33.6714 105.783 33.4944 105.303 33.4944 104.673V102.405C33.4944 101.805 33.6744 101.337 34.0344 101.001C34.3944 100.665 34.9044 100.497 35.5644 100.497C35.9244 100.497 36.2334 100.548 36.4914 100.65C36.7554 100.746 36.9594 100.887 37.1034 101.073C37.2474 101.253 37.3194 101.472 37.3194 101.73C37.3194 101.79 37.2894 101.82 37.2294 101.82H36.6534C36.5934 101.82 36.5634 101.79 36.5634 101.73C36.5634 101.556 36.4734 101.421 36.2934 101.325C36.1194 101.223 35.8794 101.172 35.5734 101.172C35.1354 101.172 34.8054 101.271 34.5834 101.469C34.3674 101.667 34.2594 101.97 34.2594 102.378V104.664C34.2594 105.06 34.3674 105.372 34.5834 105.6C34.8054 105.822 35.1084 105.933 35.4924 105.933C35.8824 105.933 36.1854 105.819 36.4014 105.591C36.6174 105.363 36.7254 105.048 36.7254 104.646V104.394C36.7254 104.07 36.6414 103.827 36.4734 103.665C36.3054 103.497 36.0564 103.413 35.7264 103.413C35.4684 103.413 35.1984 103.47 34.9164 103.584C34.6404 103.692 34.3794 103.851 34.1334 104.061V103.413C34.4094 103.191 34.6944 103.026 34.9884 102.918C35.2884 102.804 35.5974 102.747 35.9154 102.747C36.4374 102.747 36.8304 102.894 37.0944 103.188C37.3584 103.476 37.4904 103.905 37.4904 104.475C37.4904 105.147 37.3164 105.672 36.9684 106.05C36.6264 106.422 36.1374 106.608 35.5014 106.608Z" fill="#FFD700"/>
<path d="M53 96L60 100V108L53 112L46 108V100L53 96Z" fill="#FFD700"/>
<path d="M53 96L60 100V108L53 112L46 108V100L53 96Z" fill="#FFD700"/>
<path d="M53 97L59 100.5V107.5L53 111L47 107.5V100.5L53 97Z" fill="#593A01" fill-opacity="0.986"/>
<path d="M53 97L59 100.5V107.5L53 111L47 107.5V100.5L53 97Z" fill="#593A01" fill-opacity="0.986"/>
<path d="M48.7511 107C48.6911 107 48.6611 106.97 48.6611 106.91V106.289C48.6611 106.001 48.7121 105.746 48.8141 105.524C48.9221 105.296 49.0631 105.095 49.2371 104.921C49.4111 104.747 49.6001 104.588 49.8041 104.444C50.0141 104.294 50.2211 104.153 50.4251 104.021C50.6351 103.883 50.8271 103.748 51.0011 103.616C51.1751 103.478 51.3131 103.331 51.4151 103.175C51.5231 103.013 51.5771 102.833 51.5771 102.635V102.446C51.5771 102.188 51.4841 101.996 51.2981 101.87C51.1181 101.738 50.8511 101.672 50.4971 101.672C50.1431 101.672 49.8791 101.75 49.7051 101.906C49.5371 102.062 49.4531 102.281 49.4531 102.563C49.4531 102.623 49.4261 102.653 49.3721 102.653H48.7871C48.7271 102.653 48.6971 102.623 48.6971 102.563C48.6971 102.227 48.7661 101.942 48.9041 101.708C49.0421 101.474 49.2491 101.297 49.5251 101.177C49.8071 101.057 50.1581 100.997 50.5781 100.997C51.1721 100.997 51.6131 101.123 51.9011 101.375C52.1951 101.627 52.3421 101.996 52.3421 102.482C52.3421 102.8 52.2881 103.073 52.1801 103.301C52.0781 103.523 51.9401 103.721 51.7661 103.895C51.5981 104.063 51.4091 104.216 51.1991 104.354C50.9951 104.486 50.7911 104.615 50.5871 104.741C50.3831 104.867 50.1941 105.002 50.0201 105.146C49.8521 105.29 49.7141 105.455 49.6061 105.641C49.5041 105.827 49.4531 106.049 49.4531 106.307H52.2251C52.2851 106.307 52.3151 106.337 52.3151 106.397V106.91C52.3151 106.97 52.2851 107 52.2251 107H48.7511ZM54.2414 107C54.2114 107 54.1904 106.991 54.1784 106.973C54.1664 106.949 54.1664 106.922 54.1784 106.892L56.5004 101.798H54.1424V102.536C54.1424 102.596 54.1124 102.626 54.0524 102.626H53.4764C53.4164 102.626 53.3864 102.596 53.3864 102.536V101.195C53.3864 101.135 53.4164 101.105 53.4764 101.105H57.4274C57.4574 101.105 57.4784 101.114 57.4904 101.132C57.5084 101.144 57.5174 101.165 57.5174 101.195V101.24C57.5174 101.264 57.5144 101.288 57.5084 101.312C57.5084 101.33 57.5024 101.351 57.4904 101.375L54.9794 106.919C54.9674 106.943 54.9494 106.964 54.9254 106.982C54.9074 106.994 54.8834 107 54.8534 107H54.2414Z" fill="#FFD700"/>
<path d="M73 96L80 100V108L73 112L66 108V100L73 96Z" fill="#FFD700"/>
<path d="M73 96L80 100V108L73 112L66 108V100L73 96Z" fill="#FFD700"/>
<path d="M73 97L79 100.5V107.5L73 111L67 107.5V100.5L73 97Z" fill="#593A01" fill-opacity="0.986"/>
<path d="M73 97L79 100.5V107.5L73 111L67 107.5V100.5L73 97Z" fill="#593A01" fill-opacity="0.986"/>
<path d="M68.9326 107C68.8726 107 68.8426 106.97 68.8426 106.91V106.289C68.8426 106.001 68.8936 105.746 68.9956 105.524C69.1036 105.296 69.2446 105.095 69.4186 104.921C69.5926 104.747 69.7816 104.588 69.9856 104.444C70.1956 104.294 70.4026 104.153 70.6066 104.021C70.8166 103.883 71.0086 103.748 71.1826 103.616C71.3566 103.478 71.4946 103.331 71.5966 103.175C71.7046 103.013 71.7586 102.833 71.7586 102.635V102.446C71.7586 102.188 71.6656 101.996 71.4796 101.87C71.2996 101.738 71.0326 101.672 70.6786 101.672C70.3246 101.672 70.0606 101.75 69.8866 101.906C69.7186 102.062 69.6346 102.281 69.6346 102.563C69.6346 102.623 69.6076 102.653 69.5536 102.653H68.9686C68.9086 102.653 68.8786 102.623 68.8786 102.563C68.8786 102.227 68.9476 101.942 69.0856 101.708C69.2236 101.474 69.4306 101.297 69.7066 101.177C69.9886 101.057 70.3396 100.997 70.7596 100.997C71.3536 100.997 71.7946 101.123 72.0826 101.375C72.3766 101.627 72.5236 101.996 72.5236 102.482C72.5236 102.8 72.4696 103.073 72.3616 103.301C72.2596 103.523 72.1216 103.721 71.9476 103.895C71.7796 104.063 71.5906 104.216 71.3806 104.354C71.1766 104.486 70.9726 104.615 70.7686 104.741C70.5646 104.867 70.3756 105.002 70.2016 105.146C70.0336 105.29 69.8956 105.455 69.7876 105.641C69.6856 105.827 69.6346 106.049 69.6346 106.307H72.4066C72.4666 106.307 72.4966 106.337 72.4966 106.397V106.91C72.4966 106.97 72.4666 107 72.4066 107H68.9326ZM75.665 107.108C74.999 107.108 74.483 106.97 74.117 106.694C73.751 106.412 73.568 105.986 73.568 105.416C73.568 105.026 73.658 104.699 73.838 104.435C74.024 104.165 74.273 103.973 74.585 103.859C74.327 103.739 74.135 103.58 74.009 103.382C73.883 103.178 73.82 102.896 73.82 102.536C73.82 102.062 73.979 101.687 74.297 101.411C74.615 101.135 75.071 100.997 75.665 100.997C76.259 100.997 76.715 101.135 77.033 101.411C77.351 101.687 77.51 102.062 77.51 102.536C77.51 102.896 77.447 103.178 77.321 103.382C77.195 103.58 77.003 103.739 76.745 103.859C77.057 103.973 77.303 104.165 77.483 104.435C77.669 104.699 77.762 105.026 77.762 105.416C77.762 105.986 77.579 106.412 77.213 106.694C76.847 106.97 76.331 107.108 75.665 107.108ZM75.665 106.46C76.109 106.46 76.442 106.373 76.664 106.199C76.886 106.025 76.997 105.779 76.997 105.461V105.308C76.997 104.942 76.877 104.66 76.637 104.462C76.403 104.258 76.079 104.156 75.665 104.156C75.251 104.156 74.924 104.258 74.684 104.462C74.45 104.66 74.333 104.942 74.333 105.308V105.461C74.333 105.779 74.444 106.025 74.666 106.199C74.888 106.373 75.221 106.46 75.665 106.46ZM75.665 103.562C76.013 103.562 76.28 103.481 76.466 103.319C76.652 103.157 76.745 102.935 76.745 102.653V102.518C76.745 102.254 76.652 102.044 76.466 101.888C76.286 101.726 76.019 101.645 75.665 101.645C75.317 101.645 75.05 101.726 74.864 101.888C74.678 102.044 74.585 102.254 74.585 102.518V102.653C74.585 102.935 74.678 103.157 74.864 103.319C75.05 103.481 75.317 103.562 75.665 103.562Z" fill="#FFD700"/>
<path d="M93 97L100 101V109L93 113L86 109V101L93 97Z" fill="#FFD700"/>
<path d="M93 97L100 101V109L93 113L86 109V101L93 97Z" fill="#FFD700"/>
<path d="M93 98L99 101.5V108.5L93 112L87 108.5V101.5L93 98Z" fill="#593A01" fill-opacity="0.986"/>
<path d="M93 98L99 101.5V108.5L93 112L87 108.5V101.5L93 98Z" fill="#593A01" fill-opacity="0.986"/>
<path d="M88.6474 108C88.5874 108 88.5574 107.97 88.5574 107.91V107.289C88.5574 107.001 88.6084 106.746 88.7104 106.524C88.8184 106.296 88.9594 106.095 89.1334 105.921C89.3074 105.747 89.4964 105.588 89.7004 105.444C89.9104 105.294 90.1174 105.153 90.3214 105.021C90.5314 104.883 90.7234 104.748 90.8974 104.616C91.0714 104.478 91.2094 104.331 91.3114 104.175C91.4194 104.013 91.4734 103.833 91.4734 103.635V103.446C91.4734 103.188 91.3804 102.996 91.1944 102.87C91.0144 102.738 90.7474 102.672 90.3934 102.672C90.0394 102.672 89.7754 102.75 89.6014 102.906C89.4334 103.062 89.3494 103.281 89.3494 103.563C89.3494 103.623 89.3224 103.653 89.2684 103.653H88.6834C88.6234 103.653 88.5934 103.623 88.5934 103.563C88.5934 103.227 88.6624 102.942 88.8004 102.708C88.9384 102.474 89.1454 102.297 89.4214 102.177C89.7034 102.057 90.0544 101.997 90.4744 101.997C91.0684 101.997 91.5094 102.123 91.7974 102.375C92.0914 102.627 92.2384 102.996 92.2384 103.482C92.2384 103.8 92.1844 104.073 92.0764 104.301C91.9744 104.523 91.8364 104.721 91.6624 104.895C91.4944 105.063 91.3054 105.216 91.0954 105.354C90.8914 105.486 90.6874 105.615 90.4834 105.741C90.2794 105.867 90.0904 106.002 89.9164 106.146C89.7484 106.29 89.6104 106.455 89.5024 106.641C89.4004 106.827 89.3494 107.049 89.3494 107.307H92.1214C92.1814 107.307 92.2114 107.337 92.2114 107.397V107.91C92.2114 107.97 92.1814 108 92.1214 108H88.6474ZM95.3258 108.108C94.7438 108.108 94.2938 107.985 93.9758 107.739C93.6578 107.493 93.4988 107.139 93.4988 106.677C93.4988 106.617 93.5288 106.587 93.5888 106.587H94.1648C94.2248 106.587 94.2548 106.617 94.2548 106.677C94.2548 106.857 94.3448 107.028 94.5248 107.19C94.7108 107.352 94.9808 107.433 95.3348 107.433C95.7788 107.433 96.1058 107.325 96.3158 107.109C96.5318 106.893 96.6398 106.575 96.6398 106.155V103.941C96.6398 103.545 96.5258 103.236 96.2978 103.014C96.0698 102.786 95.7578 102.672 95.3618 102.672C95.1038 102.672 94.8848 102.723 94.7048 102.825C94.5248 102.921 94.3868 103.062 94.2908 103.248C94.2008 103.434 94.1558 103.665 94.1558 103.941V104.283C94.1558 104.577 94.2488 104.808 94.4348 104.976C94.6208 105.144 94.8788 105.228 95.2088 105.228C95.4728 105.228 95.7338 105.174 95.9918 105.066C96.2558 104.958 96.5138 104.793 96.7658 104.571L96.7748 105.219C96.4868 105.459 96.2108 105.633 95.9468 105.741C95.6888 105.843 95.4068 105.894 95.1008 105.894C94.5428 105.894 94.1168 105.738 93.8228 105.426C93.5348 105.114 93.3908 104.661 93.3908 104.067C93.3908 103.395 93.5618 102.882 93.9038 102.528C94.2458 102.174 94.7348 101.997 95.3708 101.997C96.0128 101.997 96.5108 102.174 96.8648 102.528C97.2248 102.882 97.4048 103.371 97.4048 103.995V106.11C97.4048 106.764 97.2308 107.262 96.8828 107.604C96.5348 107.94 96.0158 108.108 95.3258 108.108Z" fill="#FFD700"/>
<path d="M113 97L120 101V109L113 113L106 109V101L113 97Z" fill="#FFD700"/>
<path d="M113 97L120 101V109L113 113L106 109V101L113 97Z" fill="#FFD700"/>
<path d="M113 98L119 101.5V108.5L113 112L107 108.5V101.5L113 98Z" fill="#593A01" fill-opacity="0.986"/>
<path d="M113 98L119 101.5V108.5L113 112L107 108.5V101.5L113 98Z" fill="#593A01" fill-opacity="0.986"/>
<path d="M110.398 108.108C109.996 108.108 109.657 108.045 109.381 107.919C109.111 107.787 108.907 107.604 108.769 107.37C108.637 107.13 108.571 106.854 108.571 106.542C108.571 106.482 108.601 106.452 108.661 106.452H109.237C109.297 106.452 109.327 106.482 109.327 106.542C109.327 106.83 109.414 107.052 109.588 107.208C109.768 107.358 110.032 107.433 110.38 107.433C110.788 107.433 111.103 107.349 111.325 107.181C111.547 107.007 111.658 106.767 111.658 106.461V106.227C111.658 105.927 111.553 105.699 111.343 105.543C111.139 105.387 110.833 105.309 110.425 105.309H109.642C109.582 105.309 109.552 105.279 109.552 105.219V104.733C109.552 104.673 109.582 104.643 109.642 104.643H110.434C110.788 104.643 111.055 104.562 111.235 104.4C111.421 104.238 111.514 104.001 111.514 103.689V103.455C111.514 103.191 111.421 102.996 111.235 102.87C111.055 102.738 110.782 102.672 110.416 102.672C110.05 102.672 109.777 102.744 109.597 102.888C109.423 103.026 109.336 103.251 109.336 103.563C109.336 103.623 109.306 103.653 109.246 103.653H108.67C108.646 103.653 108.625 103.644 108.607 103.626C108.589 103.608 108.58 103.587 108.58 103.563C108.58 103.041 108.736 102.651 109.048 102.393C109.366 102.129 109.843 101.997 110.479 101.997C111.091 101.997 111.544 102.12 111.838 102.366C112.132 102.606 112.279 102.984 112.279 103.5C112.279 103.884 112.198 104.196 112.036 104.436C111.88 104.67 111.67 104.829 111.406 104.913V104.931C111.754 105.045 112.009 105.222 112.171 105.462C112.339 105.696 112.423 106.002 112.423 106.38C112.423 106.938 112.249 107.367 111.901 107.667C111.553 107.961 111.052 108.108 110.398 108.108ZM115.572 108.108C114.942 108.108 114.45 107.928 114.096 107.568C113.742 107.208 113.565 106.707 113.565 106.065V104.04C113.565 103.398 113.742 102.897 114.096 102.537C114.45 102.177 114.942 101.997 115.572 101.997C116.202 101.997 116.694 102.177 117.048 102.537C117.402 102.897 117.579 103.398 117.579 104.04V106.065C117.579 106.707 117.402 107.208 117.048 107.568C116.694 107.928 116.202 108.108 115.572 108.108ZM115.572 107.433C115.962 107.433 116.265 107.319 116.481 107.091C116.703 106.857 116.814 106.539 116.814 106.137V103.968C116.814 103.56 116.703 103.242 116.481 103.014C116.265 102.786 115.962 102.672 115.572 102.672C115.182 102.672 114.876 102.786 114.654 103.014C114.438 103.242 114.33 103.56 114.33 103.968V106.137C114.33 106.539 114.438 106.857 114.654 107.091C114.876 107.319 115.182 107.433 115.572 107.433Z" fill="#FFD700"/>
<path d="M33 8L40 12V20L33 24L26 20V12L33 8Z" fill="#FFD700"/>
<path d="M33 8L40 12V20L33 24L26 20V12L33 8Z" fill="#FFD700"/>
<path d="M33 9L39 12.5V19.5L33 23L27 19.5V12.5L33 9Z" fill="#593A01" fill-opacity="0.986"/>
<path d="M33 9L39 12.5V19.5L33 23L27 19.5V12.5L33 9Z" fill="#593A01" fill-opacity="0.986"/>
<path d="M31.1058 19C31.0392 19 31.0058 18.9667 31.0058 18.9V18.21C31.0058 17.89 31.0625 17.6067 31.1758 17.36C31.2958 17.1067 31.4525 16.8833 31.6458 16.69C31.8392 16.4967 32.0492 16.32 32.2758 16.16C32.5092 15.9933 32.7392 15.8367 32.9658 15.69C33.1992 15.5367 33.4125 15.3867 33.6058 15.24C33.7992 15.0867 33.9525 14.9233 34.0658 14.75C34.1858 14.57 34.2458 14.37 34.2458 14.15V13.94C34.2458 13.6533 34.1425 13.44 33.9358 13.3C33.7358 13.1533 33.4392 13.08 33.0458 13.08C32.6525 13.08 32.3592 13.1667 32.1658 13.34C31.9792 13.5133 31.8858 13.7567 31.8858 14.07C31.8858 14.1367 31.8558 14.17 31.7958 14.17H31.1458C31.0792 14.17 31.0458 14.1367 31.0458 14.07C31.0458 13.6967 31.1225 13.38 31.2758 13.12C31.4292 12.86 31.6592 12.6633 31.9658 12.53C32.2792 12.3967 32.6692 12.33 33.1358 12.33C33.7958 12.33 34.2858 12.47 34.6058 12.75C34.9325 13.03 35.0958 13.44 35.0958 13.98C35.0958 14.3333 35.0358 14.6367 34.9158 14.89C34.8025 15.1367 34.6492 15.3567 34.4558 15.55C34.2692 15.7367 34.0592 15.9067 33.8258 16.06C33.5992 16.2067 33.3725 16.35 33.1458 16.49C32.9192 16.63 32.7092 16.78 32.5158 16.94C32.3292 17.1 32.1758 17.2833 32.0558 17.49C31.9425 17.6967 31.8858 17.9433 31.8858 18.23H34.9658C35.0325 18.23 35.0658 18.2633 35.0658 18.33V18.9C35.0658 18.9667 35.0325 19 34.9658 19H31.1058Z" fill="#FFD700"/>
<path d="M52.657 8L59.657 12V20L52.657 24L45.657 20V12L52.657 8Z" fill="#FFD700"/>
<path d="M52.657 8L59.657 12V20L52.657 24L45.657 20V12L52.657 8Z" fill="#FFD700"/>
<path d="M52.657 9L58.657 12.5V19.5L52.657 23L46.657 19.5V12.5L52.657 9Z" fill="#593A01" fill-opacity="0.986"/>
<path d="M52.657 9L58.657 12.5V19.5L52.657 23L46.657 19.5V12.5L52.657 9Z" fill="#593A01" fill-opacity="0.986"/>
<path d="M52.5928 19.12C52.1461 19.12 51.7695 19.05 51.4628 18.91C51.1628 18.7633 50.9361 18.56 50.7828 18.3C50.6361 18.0333 50.5628 17.7267 50.5628 17.38C50.5628 17.3133 50.5961 17.28 50.6628 17.28H51.3028C51.3695 17.28 51.4028 17.3133 51.4028 17.38C51.4028 17.7 51.4995 17.9467 51.6928 18.12C51.8928 18.2867 52.1861 18.37 52.5728 18.37C53.0261 18.37 53.3761 18.2767 53.6228 18.09C53.8695 17.8967 53.9928 17.63 53.9928 17.29V17.03C53.9928 16.6967 53.8761 16.4433 53.6428 16.27C53.4161 16.0967 53.0761 16.01 52.6228 16.01H51.7528C51.6861 16.01 51.6528 15.9767 51.6528 15.91V15.37C51.6528 15.3033 51.6861 15.27 51.7528 15.27H52.6328C53.0261 15.27 53.3228 15.18 53.5228 15C53.7295 14.82 53.8328 14.5567 53.8328 14.21V13.95C53.8328 13.6567 53.7295 13.44 53.5228 13.3C53.3228 13.1533 53.0195 13.08 52.6128 13.08C52.2061 13.08 51.9028 13.16 51.7028 13.32C51.5095 13.4733 51.4128 13.7233 51.4128 14.07C51.4128 14.1367 51.3795 14.17 51.3128 14.17H50.6728C50.6461 14.17 50.6228 14.16 50.6028 14.14C50.5828 14.12 50.5728 14.0967 50.5728 14.07C50.5728 13.49 50.7461 13.0567 51.0928 12.77C51.4461 12.4767 51.9761 12.33 52.6828 12.33C53.3628 12.33 53.8661 12.4667 54.1928 12.74C54.5195 13.0067 54.6828 13.4267 54.6828 14C54.6828 14.4267 54.5928 14.7733 54.4128 15.04C54.2395 15.3 54.0061 15.4767 53.7128 15.57V15.59C54.0995 15.7167 54.3828 15.9133 54.5628 16.18C54.7495 16.44 54.8428 16.78 54.8428 17.2C54.8428 17.82 54.6495 18.2967 54.2628 18.63C53.8761 18.9567 53.3195 19.12 52.5928 19.12Z" fill="#FFD700"/>
<path d="M72.9893 8L79.9893 12V20L72.9893 24L65.9893 20V12L72.9893 8Z" fill="#CFCFCF"/>
<path d="M72.9893 8L79.9893 12V20L72.9893 24L65.9893 20V12L72.9893 8Z" fill="#CFCFCF"/>
<path d="M72.9893 9L78.9893 12.5V19.5L72.9893 23L66.9893 19.5V12.5L72.9893 9Z" fill="#EFEFEF"/>
<path d="M72.9893 9L78.9893 12.5V19.5L72.9893 23L66.9893 19.5V12.5L72.9893 9Z" fill="#EFEFEF"/>
<path d="M73.5893 19C73.5226 19 73.4893 18.9667 73.4893 18.9V17.71H70.1893C70.1226 17.71 70.0893 17.6767 70.0893 17.61V17.55C70.0893 17.5167 70.0893 17.4933 70.0893 17.48C70.096 17.46 70.106 17.4367 70.1193 17.41L72.8093 12.53C72.8426 12.4767 72.886 12.45 72.9393 12.45H73.5993C73.6326 12.45 73.656 12.46 73.6693 12.48C73.6893 12.5 73.6893 12.5267 73.6693 12.56L71.2493 16.94H73.4993V14.75C73.4993 14.6833 73.5326 14.65 73.5993 14.65H74.2093C74.276 14.65 74.3093 14.6833 74.3093 14.75V16.94H75.0693C75.136 16.94 75.1693 16.9733 75.1693 17.04V17.61C75.1693 17.6767 75.136 17.71 75.0693 17.71H74.3093V18.9C74.3093 18.9667 74.276 19 74.2093 19H73.5893Z" fill="black"/>
<path d="M93 8L100 12V20L93 24L86 20V12L93 8Z" fill="#CFCFCF"/>
<path d="M93 8L100 12V20L93 24L86 20V12L93 8Z" fill="#CFCFCF"/>
<path d="M93 9L99 12.5V19.5L93 23L87 19.5V12.5L93 9Z" fill="#EFEFEF"/>
<path d="M93 9L99 12.5V19.5L93 23L87 19.5V12.5L93 9Z" fill="#EFEFEF"/>
<path d="M92.9393 19.62C92.5259 19.62 92.1726 19.5533 91.8793 19.42C91.5926 19.2867 91.3726 19.0933 91.2193 18.84C91.0726 18.58 90.9993 18.26 90.9993 17.88C90.9993 17.8467 91.0093 17.8233 91.0293 17.81C91.0493 17.79 91.0726 17.78 91.0993 17.78H91.7293C91.7959 17.78 91.8293 17.8133 91.8293 17.88C91.8293 18.2067 91.9293 18.4533 92.1293 18.62C92.3293 18.7867 92.6226 18.87 93.0093 18.87C93.4893 18.87 93.8359 18.77 94.0493 18.57C94.2626 18.37 94.3693 18.06 94.3693 17.64V17.34C94.3693 17.0467 94.3193 16.8067 94.2193 16.62C94.1259 16.4267 93.9759 16.2867 93.7693 16.2C93.5693 16.1067 93.3093 16.06 92.9893 16.06C92.7826 16.06 92.5293 16.0933 92.2293 16.16C91.9359 16.22 91.6526 16.3133 91.3793 16.44C91.3259 16.4667 91.2793 16.4667 91.2393 16.44C91.2059 16.4133 91.1926 16.3767 91.1993 16.33L91.4993 13.05C91.5059 12.9833 91.5393 12.95 91.5993 12.95H94.7393C94.8059 12.95 94.8393 12.9833 94.8393 13.05V13.62C94.8393 13.6867 94.8059 13.72 94.7393 13.72H92.2493L92.1193 15.48C92.3326 15.4267 92.5293 15.39 92.7093 15.37C92.8959 15.35 93.0626 15.34 93.2093 15.34C93.8359 15.34 94.3259 15.5167 94.6793 15.87C95.0393 16.2233 95.2193 16.7467 95.2193 17.44C95.2193 18.1467 95.0226 18.6867 94.6293 19.06C94.2426 19.4333 93.6793 19.62 92.9393 19.62Z" fill="black"/>
<path d="M13.1577 30L20.1577 34V42L13.1577 46L6.15768 42V34L13.1577 30Z" fill="#CFCFCF"/>
<path d="M13.1577 30L20.1577 34V42L13.1577 46L6.15768 42V34L13.1577 30Z" fill="#CFCFCF"/>
<path d="M13.1577 31L19.1577 34.5V41.5L13.1577 45L7.15768 41.5V34.5L13.1577 31Z" fill="#EFEFEF"/>
<path d="M13.1577 31L19.1577 34.5V41.5L13.1577 45L7.15768 41.5V34.5L13.1577 31Z" fill="#EFEFEF"/>
<path d="M12.157 41C12.1236 41 12.1003 40.99 12.087 40.97C12.0736 40.9433 12.0736 40.9133 12.087 40.88L14.667 35.22H12.047V36.04C12.047 36.1067 12.0136 36.14 11.947 36.14H11.307C11.2403 36.14 11.207 36.1067 11.207 36.04V34.55C11.207 34.4833 11.2403 34.45 11.307 34.45H15.697C15.7303 34.45 15.7536 34.46 15.767 34.48C15.787 34.4933 15.797 34.5167 15.797 34.55V34.6C15.797 34.6267 15.7936 34.6533 15.787 34.68C15.787 34.7 15.7803 34.7233 15.767 34.75L12.977 40.91C12.9636 40.9367 12.9436 40.96 12.917 40.98C12.897 40.9933 12.8703 41 12.837 41H12.157Z" fill="#CFCFCF"/>
<path d="M12.157 41C12.1236 41 12.1003 40.99 12.087 40.97C12.0736 40.9433 12.0736 40.9133 12.087 40.88L14.667 35.22H12.047V36.04C12.047 36.1067 12.0136 36.14 11.947 36.14H11.307C11.2403 36.14 11.207 36.1067 11.207 36.04V34.55C11.207 34.4833 11.2403 34.45 11.307 34.45H15.697C15.7303 34.45 15.7536 34.46 15.767 34.48C15.787 34.4933 15.797 34.5167 15.797 34.55V34.6C15.797 34.6267 15.7936 34.6533 15.787 34.68C15.787 34.7 15.7803 34.7233 15.767 34.75L12.977 40.91C12.9636 40.9367 12.9436 40.96 12.917 40.98C12.897 40.9933 12.8703 41 12.837 41H12.157Z" fill="black"/>
<path d="M33 30L40 34V42L33 46L26 42V34L33 30Z" fill="#CFCFCF"/>
<path d="M33 30L40 34V42L33 46L26 42V34L33 30Z" fill="#CFCFCF"/>
<path d="M33 31L39 34.5V41.5L33 45L27 41.5V34.5L33 31Z" fill="#EFEFEF"/>
<path d="M33 31L39 34.5V41.5L33 45L27 41.5V34.5L33 31Z" fill="#EFEFEF"/>
<path d="M32.88 41.12C32.14 41.12 31.5667 40.9667 31.16 40.66C30.7533 40.3467 30.55 39.8733 30.55 39.24C30.55 38.8067 30.65 38.4433 30.85 38.15C31.0567 37.85 31.3333 37.6367 31.68 37.51C31.3933 37.3767 31.18 37.2 31.04 36.98C30.9 36.7533 30.83 36.44 30.83 36.04C30.83 35.5133 31.0067 35.0967 31.36 34.79C31.7133 34.4833 32.22 34.33 32.88 34.33C33.54 34.33 34.0467 34.4833 34.4 34.79C34.7533 35.0967 34.93 35.5133 34.93 36.04C34.93 36.44 34.86 36.7533 34.72 36.98C34.58 37.2 34.3667 37.3767 34.08 37.51C34.4267 37.6367 34.7 37.85 34.9 38.15C35.1067 38.4433 35.21 38.8067 35.21 39.24C35.21 39.8733 35.0067 40.3467 34.6 40.66C34.1933 40.9667 33.62 41.12 32.88 41.12ZM32.88 40.4C33.3733 40.4 33.7433 40.3033 33.99 40.11C34.2367 39.9167 34.36 39.6433 34.36 39.29V39.12C34.36 38.7133 34.2267 38.4 33.96 38.18C33.7 37.9533 33.34 37.84 32.88 37.84C32.42 37.84 32.0567 37.9533 31.79 38.18C31.53 38.4 31.4 38.7133 31.4 39.12V39.29C31.4 39.6433 31.5233 39.9167 31.77 40.11C32.0167 40.3033 32.3867 40.4 32.88 40.4ZM32.88 37.18C33.2667 37.18 33.5633 37.09 33.77 36.91C33.9767 36.73 34.08 36.4833 34.08 36.17V36.02C34.08 35.7267 33.9767 35.4933 33.77 35.32C33.57 35.14 33.2733 35.05 32.88 35.05C32.4933 35.05 32.1967 35.14 31.99 35.32C31.7833 35.4933 31.68 35.7267 31.68 36.02V36.17C31.68 36.4833 31.7833 36.73 31.99 36.91C32.1967 37.09 32.4933 37.18 32.88 37.18Z" fill="black"/>
<path d="M93 31L100 35V43L93 47L86 43V35L93 31Z" fill="#CFCFCF"/>
<path d="M93 31L100 35V43L93 47L86 43V35L93 31Z" fill="#CFCFCF"/>
<path d="M93 32L99 35.5V42.5L93 46L87 42.5V35.5L93 32Z" fill="#EFEFEF"/>
<path d="M93 32L99 35.5V42.5L93 46L87 42.5V35.5L93 32Z" fill="#EFEFEF"/>
<path d="M89.3589 41.5985C89.2989 41.5985 89.2689 41.5685 89.2689 41.5085V40.9955C89.2689 40.9355 89.2989 40.9055 89.3589 40.9055H90.7629V36.5765L89.4129 36.9995C89.3829 37.0055 89.3589 37.0055 89.3409 36.9995C89.3289 36.9875 89.3229 36.9665 89.3229 36.9365V36.4055C89.3229 36.3575 89.3409 36.3275 89.3769 36.3155L91.2579 35.6855C91.2759 35.6795 91.2939 35.6765 91.3119 35.6765C91.3359 35.6705 91.3599 35.6675 91.3839 35.6675H91.4379C91.4979 35.6675 91.5279 35.6975 91.5279 35.7575V40.9055H92.7699C92.8299 40.9055 92.8599 40.9355 92.8599 40.9955V41.5085C92.8599 41.5685 92.8299 41.5985 92.7699 41.5985H89.3589ZM93.4458 41.5985C93.3858 41.5985 93.3558 41.5685 93.3558 41.5085V40.9955C93.3558 40.9355 93.3858 40.9055 93.4458 40.9055H94.8498V36.5765L93.4998 36.9995C93.4698 37.0055 93.4458 37.0055 93.4278 36.9995C93.4158 36.9875 93.4098 36.9665 93.4098 36.9365V36.4055C93.4098 36.3575 93.4278 36.3275 93.4638 36.3155L95.3448 35.6855C95.3628 35.6795 95.3808 35.6765 95.3988 35.6765C95.4228 35.6705 95.4468 35.6675 95.4708 35.6675H95.5248C95.5848 35.6675 95.6148 35.6975 95.6148 35.7575V40.9055H96.8568C96.9168 40.9055 96.9468 40.9355 96.9468 40.9955V41.5085C96.9468 41.5685 96.9168 41.5985 96.8568 41.5985H93.4458Z" fill="black"/>
<path d="M113 31L120 35V43L113 47L106 43V35L113 31Z" fill="#CFCFCF"/>
<path d="M113 31L120 35V43L113 47L106 43V35L113 31Z" fill="#CFCFCF"/>
<path d="M113 32L119 35.5V42.5L113 46L107 42.5V35.5L113 32Z" fill="#EFEFEF"/>
<path d="M113 32L119 35.5V42.5L113 46L107 42.5V35.5L113 32Z" fill="#EFEFEF"/>
<path d="M108.98 41.5985C108.92 41.5985 108.89 41.5685 108.89 41.5085V40.9955C108.89 40.9355 108.92 40.9055 108.98 40.9055H110.384V36.5765L109.034 36.9995C109.004 37.0055 108.98 37.0055 108.962 36.9995C108.95 36.9875 108.944 36.9665 108.944 36.9365V36.4055C108.944 36.3575 108.962 36.3275 108.998 36.3155L110.879 35.6855C110.897 35.6795 110.915 35.6765 110.933 35.6765C110.957 35.6705 110.981 35.6675 111.005 35.6675H111.059C111.119 35.6675 111.149 35.6975 111.149 35.7575V40.9055H112.391C112.451 40.9055 112.481 40.9355 112.481 40.9955V41.5085C112.481 41.5685 112.451 41.5985 112.391 41.5985H108.98ZM113.425 41.5985C113.365 41.5985 113.335 41.5685 113.335 41.5085V40.8875C113.335 40.5995 113.386 40.3445 113.488 40.1225C113.596 39.8945 113.737 39.6935 113.911 39.5195C114.085 39.3455 114.274 39.1865 114.478 39.0425C114.688 38.8925 114.895 38.7515 115.099 38.6195C115.309 38.4815 115.501 38.3465 115.675 38.2145C115.849 38.0765 115.987 37.9295 116.089 37.7735C116.197 37.6115 116.251 37.4315 116.251 37.2335V37.0445C116.251 36.7865 116.158 36.5945 115.972 36.4685C115.792 36.3365 115.525 36.2705 115.171 36.2705C114.817 36.2705 114.553 36.3485 114.379 36.5045C114.211 36.6605 114.127 36.8795 114.127 37.1615C114.127 37.2215 114.1 37.2515 114.046 37.2515H113.461C113.401 37.2515 113.371 37.2215 113.371 37.1615C113.371 36.8255 113.44 36.5405 113.578 36.3065C113.716 36.0725 113.923 35.8955 114.199 35.7755C114.481 35.6555 114.832 35.5955 115.252 35.5955C115.846 35.5955 116.287 35.7215 116.575 35.9735C116.869 36.2255 117.016 36.5945 117.016 37.0805C117.016 37.3985 116.962 37.6715 116.854 37.8995C116.752 38.1215 116.614 38.3195 116.44 38.4935C116.272 38.6615 116.083 38.8145 115.873 38.9525C115.669 39.0845 115.465 39.2135 115.261 39.3395C115.057 39.4655 114.868 39.6005 114.694 39.7445C114.526 39.8885 114.388 40.0535 114.28 40.2395C114.178 40.4255 114.127 40.6475 114.127 40.9055H116.899C116.959 40.9055 116.989 40.9355 116.989 40.9955V41.5085C116.989 41.5685 116.959 41.5985 116.899 41.5985H113.425Z" fill="black"/>
<path d="M33 74L40 78V86L33 90L26 86V78L33 74Z" fill="#CFCFCF"/>
<path d="M33 74L40 78V86L33 90L26 86V78L33 74Z" fill="#CFCFCF"/>
<path d="M33 75L39 78.5V85.5L33 89L27 85.5V78.5L33 75Z" fill="#EFEFEF"/>
<path d="M33 75L39 78.5V85.5L33 89L27 85.5V78.5L33 75Z" fill="#EFEFEF"/>
<path d="M28.9326 84.5C28.8726 84.5 28.8426 84.47 28.8426 84.41V83.789C28.8426 83.501 28.8936 83.246 28.9956 83.024C29.1036 82.796 29.2446 82.595 29.4186 82.421C29.5926 82.247 29.7816 82.088 29.9856 81.944C30.1956 81.794 30.4026 81.653 30.6066 81.521C30.8166 81.383 31.0086 81.248 31.1826 81.116C31.3566 80.978 31.4946 80.831 31.5966 80.675C31.7046 80.513 31.7586 80.333 31.7586 80.135V79.946C31.7586 79.688 31.6656 79.496 31.4796 79.37C31.2996 79.238 31.0326 79.172 30.6786 79.172C30.3246 79.172 30.0606 79.25 29.8866 79.406C29.7186 79.562 29.6346 79.781 29.6346 80.063C29.6346 80.123 29.6076 80.153 29.5536 80.153H28.9686C28.9086 80.153 28.8786 80.123 28.8786 80.063C28.8786 79.727 28.9476 79.442 29.0856 79.208C29.2236 78.974 29.4306 78.797 29.7066 78.677C29.9886 78.557 30.3396 78.497 30.7596 78.497C31.3536 78.497 31.7946 78.623 32.0826 78.875C32.3766 79.127 32.5236 79.496 32.5236 79.982C32.5236 80.3 32.4696 80.573 32.3616 80.801C32.2596 81.023 32.1216 81.221 31.9476 81.395C31.7796 81.563 31.5906 81.716 31.3806 81.854C31.1766 81.986 30.9726 82.115 30.7686 82.241C30.5646 82.367 30.3756 82.502 30.2016 82.646C30.0336 82.79 29.8956 82.955 29.7876 83.141C29.6856 83.327 29.6346 83.549 29.6346 83.807H32.4066C32.4666 83.807 32.4966 83.837 32.4966 83.897V84.41C32.4966 84.47 32.4666 84.5 32.4066 84.5H28.9326ZM35.683 84.608C35.053 84.608 34.561 84.428 34.207 84.068C33.853 83.708 33.676 83.207 33.676 82.565V80.54C33.676 79.898 33.853 79.397 34.207 79.037C34.561 78.677 35.053 78.497 35.683 78.497C36.313 78.497 36.805 78.677 37.159 79.037C37.513 79.397 37.69 79.898 37.69 80.54V82.565C37.69 83.207 37.513 83.708 37.159 84.068C36.805 84.428 36.313 84.608 35.683 84.608ZM35.683 83.933C36.073 83.933 36.376 83.819 36.592 83.591C36.814 83.357 36.925 83.039 36.925 82.637V80.468C36.925 80.06 36.814 79.742 36.592 79.514C36.376 79.286 36.073 79.172 35.683 79.172C35.293 79.172 34.987 79.286 34.765 79.514C34.549 79.742 34.441 80.06 34.441 80.468V82.637C34.441 83.039 34.549 83.357 34.765 83.591C34.987 83.819 35.293 83.933 35.683 83.933Z" fill="black"/>
<path d="M53 75L60 79V87L53 91L46 87V79L53 75Z" fill="#CFCFCF"/>
<path d="M53 75L60 79V87L53 91L46 87V79L53 75Z" fill="#CFCFCF"/>
<path d="M53 76L59 79.5V86.5L53 90L47 86.5V79.5L53 76Z" fill="#EFEFEF"/>
<path d="M53 76L59 79.5V86.5L53 90L47 86.5V79.5L53 76Z" fill="#EFEFEF"/>
<path d="M48.9326 86C48.8726 86 48.8426 85.97 48.8426 85.91V85.289C48.8426 85.001 48.8936 84.746 48.9956 84.524C49.1036 84.296 49.2446 84.095 49.4186 83.921C49.5926 83.747 49.7816 83.588 49.9856 83.444C50.1956 83.294 50.4026 83.153 50.6066 83.021C50.8166 82.883 51.0086 82.748 51.1826 82.616C51.3566 82.478 51.4946 82.331 51.5966 82.175C51.7046 82.013 51.7586 81.833 51.7586 81.635V81.446C51.7586 81.188 51.6656 80.996 51.4796 80.87C51.2996 80.738 51.0326 80.672 50.6786 80.672C50.3246 80.672 50.0606 80.75 49.8866 80.906C49.7186 81.062 49.6346 81.281 49.6346 81.563C49.6346 81.623 49.6076 81.653 49.5536 81.653H48.9686C48.9086 81.653 48.8786 81.623 48.8786 81.563C48.8786 81.227 48.9476 80.942 49.0856 80.708C49.2236 80.474 49.4306 80.297 49.7066 80.177C49.9886 80.057 50.3396 79.997 50.7596 79.997C51.3536 79.997 51.7946 80.123 52.0826 80.375C52.3766 80.627 52.5236 80.996 52.5236 81.482C52.5236 81.8 52.4696 82.073 52.3616 82.301C52.2596 82.523 52.1216 82.721 51.9476 82.895C51.7796 83.063 51.5906 83.216 51.3806 83.354C51.1766 83.486 50.9726 83.615 50.7686 83.741C50.5646 83.867 50.3756 84.002 50.2016 84.146C50.0336 84.29 49.8956 84.455 49.7876 84.641C49.6856 84.827 49.6346 85.049 49.6346 85.307H52.4066C52.4666 85.307 52.4966 85.337 52.4966 85.397V85.91C52.4966 85.97 52.4666 86 52.4066 86H48.9326ZM53.523 86C53.463 86 53.433 85.97 53.433 85.91V85.397C53.433 85.337 53.463 85.307 53.523 85.307H54.927V80.978L53.577 81.401C53.547 81.407 53.523 81.407 53.505 81.401C53.493 81.389 53.487 81.368 53.487 81.338V80.807C53.487 80.759 53.505 80.729 53.541 80.717L55.422 80.087C55.44 80.081 55.458 80.078 55.476 80.078C55.5 80.072 55.524 80.069 55.548 80.069H55.602C55.662 80.069 55.692 80.099 55.692 80.159V85.307H56.934C56.994 85.307 57.024 85.337 57.024 85.397V85.91C57.024 85.97 56.994 86 56.934 86H53.523Z" fill="black"/>
<path d="M73 75L80 79V87L73 91L66 87V79L73 75Z" fill="#CFCFCF"/>
<path d="M73 75L80 79V87L73 91L66 87V79L73 75Z" fill="#CFCFCF"/>
<path d="M73 76L79 79.5V86.5L73 90L67 86.5V79.5L73 76Z" fill="#EFEFEF"/>
<path d="M73 76L79 79.5V86.5L73 90L67 86.5V79.5L73 76Z" fill="#EFEFEF"/>
<path d="M68.7511 86C68.6911 86 68.6611 85.97 68.6611 85.91V85.289C68.6611 85.001 68.7121 84.746 68.8141 84.524C68.9221 84.296 69.0631 84.095 69.2371 83.921C69.4111 83.747 69.6001 83.588 69.8041 83.444C70.0141 83.294 70.2211 83.153 70.4251 83.021C70.6351 82.883 70.8271 82.748 71.0011 82.616C71.1751 82.478 71.3131 82.331 71.4151 82.175C71.5231 82.013 71.5771 81.833 71.5771 81.635V81.446C71.5771 81.188 71.4841 80.996 71.2981 80.87C71.1181 80.738 70.8511 80.672 70.4971 80.672C70.1431 80.672 69.8791 80.75 69.7051 80.906C69.5371 81.062 69.4531 81.281 69.4531 81.563C69.4531 81.623 69.4261 81.653 69.3721 81.653H68.7871C68.7271 81.653 68.6971 81.623 68.6971 81.563C68.6971 81.227 68.7661 80.942 68.9041 80.708C69.0421 80.474 69.2491 80.297 69.5251 80.177C69.8071 80.057 70.1581 79.997 70.5781 79.997C71.1721 79.997 71.6131 80.123 71.9011 80.375C72.1951 80.627 72.3421 80.996 72.3421 81.482C72.3421 81.8 72.2881 82.073 72.1801 82.301C72.0781 82.523 71.9401 82.721 71.7661 82.895C71.5981 83.063 71.4091 83.216 71.1991 83.354C70.9951 83.486 70.7911 83.615 70.5871 83.741C70.3831 83.867 70.1941 84.002 70.0201 84.146C69.8521 84.29 69.7141 84.455 69.6061 84.641C69.5041 84.827 69.4531 85.049 69.4531 85.307H72.2251C72.2851 85.307 72.3151 85.337 72.3151 85.397V85.91C72.3151 85.97 72.2851 86 72.2251 86H68.7511ZM73.6114 86C73.5514 86 73.5214 85.97 73.5214 85.91V85.289C73.5214 85.001 73.5724 84.746 73.6744 84.524C73.7824 84.296 73.9234 84.095 74.0974 83.921C74.2714 83.747 74.4604 83.588 74.6644 83.444C74.8744 83.294 75.0814 83.153 75.2854 83.021C75.4954 82.883 75.6874 82.748 75.8614 82.616C76.0354 82.478 76.1734 82.331 76.2754 82.175C76.3834 82.013 76.4374 81.833 76.4374 81.635V81.446C76.4374 81.188 76.3444 80.996 76.1584 80.87C75.9784 80.738 75.7114 80.672 75.3574 80.672C75.0034 80.672 74.7394 80.75 74.5654 80.906C74.3974 81.062 74.3134 81.281 74.3134 81.563C74.3134 81.623 74.2864 81.653 74.2324 81.653H73.6474C73.5874 81.653 73.5574 81.623 73.5574 81.563C73.5574 81.227 73.6264 80.942 73.7644 80.708C73.9024 80.474 74.1094 80.297 74.3854 80.177C74.6674 80.057 75.0184 79.997 75.4384 79.997C76.0324 79.997 76.4734 80.123 76.7614 80.375C77.0554 80.627 77.2024 80.996 77.2024 81.482C77.2024 81.8 77.1484 82.073 77.0404 82.301C76.9384 82.523 76.8004 82.721 76.6264 82.895C76.4584 83.063 76.2694 83.216 76.0594 83.354C75.8554 83.486 75.6514 83.615 75.4474 83.741C75.2434 83.867 75.0544 84.002 74.8804 84.146C74.7124 84.29 74.5744 84.455 74.4664 84.641C74.3644 84.827 74.3134 85.049 74.3134 85.307H77.0854C77.1454 85.307 77.1754 85.337 77.1754 85.397V85.91C77.1754 85.97 77.1454 86 77.0854 86H73.6114Z" fill="black"/>
<path d="M93 75L100 79V87L93 91L86 87V79L93 75Z" fill="#CFCFCF"/>
<path d="M93 75L100 79V87L93 91L86 87V79L93 75Z" fill="#CFCFCF"/>
<path d="M93 76L99 79.5V86.5L93 90L87 86.5V79.5L93 76Z" fill="#EFEFEF"/>
<path d="M93 76L99 79.5V86.5L93 90L87 86.5V79.5L93 76Z" fill="#EFEFEF"/>
<path d="M88.9326 86C88.8726 86 88.8426 85.97 88.8426 85.91V85.289C88.8426 85.001 88.8936 84.746 88.9956 84.524C89.1036 84.296 89.2446 84.095 89.4186 83.921C89.5926 83.747 89.7816 83.588 89.9856 83.444C90.1956 83.294 90.4026 83.153 90.6066 83.021C90.8166 82.883 91.0086 82.748 91.1826 82.616C91.3566 82.478 91.4946 82.331 91.5966 82.175C91.7046 82.013 91.7586 81.833 91.7586 81.635V81.446C91.7586 81.188 91.6656 80.996 91.4796 80.87C91.2996 80.738 91.0326 80.672 90.6786 80.672C90.3246 80.672 90.0606 80.75 89.8866 80.906C89.7186 81.062 89.6346 81.281 89.6346 81.563C89.6346 81.623 89.6076 81.653 89.5536 81.653H88.9686C88.9086 81.653 88.8786 81.623 88.8786 81.563C88.8786 81.227 88.9476 80.942 89.0856 80.708C89.2236 80.474 89.4306 80.297 89.7066 80.177C89.9886 80.057 90.3396 79.997 90.7596 79.997C91.3536 79.997 91.7946 80.123 92.0826 80.375C92.3766 80.627 92.5236 80.996 92.5236 81.482C92.5236 81.8 92.4696 82.073 92.3616 82.301C92.2596 82.523 92.1216 82.721 91.9476 82.895C91.7796 83.063 91.5906 83.216 91.3806 83.354C91.1766 83.486 90.9726 83.615 90.7686 83.741C90.5646 83.867 90.3756 84.002 90.2016 84.146C90.0336 84.29 89.8956 84.455 89.7876 84.641C89.6856 84.827 89.6346 85.049 89.6346 85.307H92.4066C92.4666 85.307 92.4966 85.337 92.4966 85.397V85.91C92.4966 85.97 92.4666 86 92.4066 86H88.9326ZM95.44 86.108C95.038 86.108 94.699 86.045 94.423 85.919C94.153 85.787 93.949 85.604 93.811 85.37C93.679 85.13 93.613 84.854 93.613 84.542C93.613 84.482 93.643 84.452 93.703 84.452H94.279C94.339 84.452 94.369 84.482 94.369 84.542C94.369 84.83 94.456 85.052 94.63 85.208C94.81 85.358 95.074 85.433 95.422 85.433C95.83 85.433 96.145 85.349 96.367 85.181C96.589 85.007 96.7 84.767 96.7 84.461V84.227C96.7 83.927 96.595 83.699 96.385 83.543C96.181 83.387 95.875 83.309 95.467 83.309H94.684C94.624 83.309 94.594 83.279 94.594 83.219V82.733C94.594 82.673 94.624 82.643 94.684 82.643H95.476C95.83 82.643 96.097 82.562 96.277 82.4C96.463 82.238 96.556 82.001 96.556 81.689V81.455C96.556 81.191 96.463 80.996 96.277 80.87C96.097 80.738 95.824 80.672 95.458 80.672C95.092 80.672 94.819 80.744 94.639 80.888C94.465 81.026 94.378 81.251 94.378 81.563C94.378 81.623 94.348 81.653 94.288 81.653H93.712C93.688 81.653 93.667 81.644 93.649 81.626C93.631 81.608 93.622 81.587 93.622 81.563C93.622 81.041 93.778 80.651 94.09 80.393C94.408 80.129 94.885 79.997 95.521 79.997C96.133 79.997 96.586 80.12 96.88 80.366C97.174 80.606 97.321 80.984 97.321 81.5C97.321 81.884 97.24 82.196 97.078 82.436C96.922 82.67 96.712 82.829 96.448 82.913V82.931C96.796 83.045 97.051 83.222 97.213 83.462C97.381 83.696 97.465 84.002 97.465 84.38C97.465 84.938 97.291 85.367 96.943 85.667C96.595 85.961 96.094 86.108 95.44 86.108Z" fill="black"/>
<path d="M13 96L20 100V108L13 112L6 108V100L13 96Z" fill="#CFCFCF"/>
<path d="M13 96L20 100V108L13 112L6 108V100L13 96Z" fill="#CFCFCF"/>
<path d="M13 97L19 100.5V107.5L13 111L7 107.5V100.5L13 97Z" fill="#EFEFEF"/>
<path d="M13 97L19 100.5V107.5L13 111L7 107.5V100.5L13 97Z" fill="#EFEFEF"/>
<path d="M8.99487 107C8.93487 107 8.90487 106.97 8.90487 106.91V106.289C8.90487 106.001 8.95587 105.746 9.05787 105.524C9.16587 105.296 9.30687 105.095 9.48087 104.921C9.65487 104.747 9.84387 104.588 10.0479 104.444C10.2579 104.294 10.4649 104.153 10.6689 104.021C10.8789 103.883 11.0709 103.748 11.2449 103.616C11.4189 103.478 11.5569 103.331 11.6589 103.175C11.7669 103.013 11.8209 102.833 11.8209 102.635V102.446C11.8209 102.188 11.7279 101.996 11.5419 101.87C11.3619 101.738 11.0949 101.672 10.7409 101.672C10.3869 101.672 10.1229 101.75 9.94887 101.906C9.78087 102.062 9.69687 102.281 9.69687 102.563C9.69687 102.623 9.66987 102.653 9.61587 102.653H9.03087C8.97087 102.653 8.94087 102.623 8.94087 102.563C8.94087 102.227 9.00987 101.942 9.14787 101.708C9.28587 101.474 9.49287 101.297 9.76887 101.177C10.0509 101.057 10.4019 100.997 10.8219 100.997C11.4159 100.997 11.8569 101.123 12.1449 101.375C12.4389 101.627 12.5859 101.996 12.5859 102.482C12.5859 102.8 12.5319 103.073 12.4239 103.301C12.3219 103.523 12.1839 103.721 12.0099 103.895C11.8419 104.063 11.6529 104.216 11.4429 104.354C11.2389 104.486 11.0349 104.615 10.8309 104.741C10.6269 104.867 10.4379 105.002 10.2639 105.146C10.0959 105.29 9.95787 105.455 9.84987 105.641C9.74787 105.827 9.69687 106.049 9.69687 106.307H12.4689C12.5289 106.307 12.5589 106.337 12.5589 106.397V106.91C12.5589 106.97 12.5289 107 12.4689 107H8.99487ZM15.3312 107.108C14.9592 107.108 14.6412 107.048 14.3772 106.928C14.1192 106.808 13.9212 106.634 13.7832 106.406C13.6512 106.172 13.5852 105.884 13.5852 105.542C13.5852 105.512 13.5942 105.491 13.6122 105.479C13.6302 105.461 13.6512 105.452 13.6752 105.452H14.2422C14.3022 105.452 14.3322 105.482 14.3322 105.542C14.3322 105.836 14.4222 106.058 14.6022 106.208C14.7822 106.358 15.0462 106.433 15.3942 106.433C15.8262 106.433 16.1382 106.343 16.3302 106.163C16.5222 105.983 16.6182 105.704 16.6182 105.326V105.056C16.6182 104.792 16.5732 104.576 16.4832 104.408C16.3992 104.234 16.2642 104.108 16.0782 104.03C15.8982 103.946 15.6642 103.904 15.3762 103.904C15.1902 103.904 14.9622 103.934 14.6922 103.994C14.4282 104.048 14.1732 104.132 13.9272 104.246C13.8792 104.27 13.8372 104.27 13.8012 104.246C13.7712 104.222 13.7592 104.189 13.7652 104.147L14.0352 101.195C14.0412 101.135 14.0712 101.105 14.1252 101.105H16.9512C17.0112 101.105 17.0412 101.135 17.0412 101.195V101.708C17.0412 101.768 17.0112 101.798 16.9512 101.798H14.7102L14.5932 103.382C14.7852 103.334 14.9622 103.301 15.1242 103.283C15.2922 103.265 15.4422 103.256 15.5742 103.256C16.1382 103.256 16.5792 103.415 16.8972 103.733C17.2212 104.051 17.3832 104.522 17.3832 105.146C17.3832 105.782 17.2062 106.268 16.8522 106.604C16.5042 106.94 15.9972 107.108 15.3312 107.108Z" fill="black"/>
<path d="M14 118L21 122V130L14 134L7 130V122L14 118Z" fill="#CFCFCF"/>
<path d="M14 118L21 122V130L14 134L7 130V122L14 118Z" fill="#CFCFCF"/>
<path d="M14 119L20 122.5V129.5L14 133L8 129.5V122.5L14 119Z" fill="#EFEFEF"/>
<path d="M14 119L20 122.5V129.5L14 133L8 129.5V122.5L14 119Z" fill="#EFEFEF"/>
<path d="M11.5796 129.108C11.1776 129.108 10.8386 129.045 10.5626 128.919C10.2926 128.787 10.0886 128.604 9.95062 128.37C9.81862 128.13 9.75262 127.854 9.75262 127.542C9.75262 127.482 9.78262 127.452 9.84262 127.452H10.4186C10.4786 127.452 10.5086 127.482 10.5086 127.542C10.5086 127.83 10.5956 128.052 10.7696 128.208C10.9496 128.358 11.2136 128.433 11.5616 128.433C11.9696 128.433 12.2846 128.349 12.5066 128.181C12.7286 128.007 12.8396 127.767 12.8396 127.461V127.227C12.8396 126.927 12.7346 126.699 12.5246 126.543C12.3206 126.387 12.0146 126.309 11.6066 126.309H10.8236C10.7636 126.309 10.7336 126.279 10.7336 126.219V125.733C10.7336 125.673 10.7636 125.643 10.8236 125.643H11.6156C11.9696 125.643 12.2366 125.562 12.4166 125.4C12.6026 125.238 12.6956 125.001 12.6956 124.689V124.455C12.6956 124.191 12.6026 123.996 12.4166 123.87C12.2366 123.738 11.9636 123.672 11.5976 123.672C11.2316 123.672 10.9586 123.744 10.7786 123.888C10.6046 124.026 10.5176 124.251 10.5176 124.563C10.5176 124.623 10.4876 124.653 10.4276 124.653H9.85162C9.82762 124.653 9.80662 124.644 9.78862 124.626C9.77062 124.608 9.76162 124.587 9.76162 124.563C9.76162 124.041 9.91762 123.651 10.2296 123.393C10.5476 123.129 11.0246 122.997 11.6606 122.997C12.2726 122.997 12.7256 123.12 13.0196 123.366C13.3136 123.606 13.4606 123.984 13.4606 124.5C13.4606 124.884 13.3796 125.196 13.2176 125.436C13.0616 125.67 12.8516 125.829 12.5876 125.913V125.931C12.9356 126.045 13.1906 126.222 13.3526 126.462C13.5206 126.696 13.6046 127.002 13.6046 127.38C13.6046 127.938 13.4306 128.367 13.0826 128.667C12.7346 128.961 12.2336 129.108 11.5796 129.108ZM14.5933 129C14.5333 129 14.5033 128.97 14.5033 128.91V128.397C14.5033 128.337 14.5333 128.307 14.5933 128.307H15.9973V123.978L14.6473 124.401C14.6173 124.407 14.5933 124.407 14.5753 124.401C14.5633 124.389 14.5573 124.368 14.5573 124.338V123.807C14.5573 123.759 14.5753 123.729 14.6113 123.717L16.4923 123.087C16.5103 123.081 16.5283 123.078 16.5463 123.078C16.5703 123.072 16.5943 123.069 16.6183 123.069H16.6723C16.7323 123.069 16.7623 123.099 16.7623 123.159V128.307H18.0043C18.0643 128.307 18.0943 128.337 18.0943 128.397V128.91C18.0943 128.97 18.0643 129 18.0043 129H14.5933Z" fill="black"/>
<path d="M13 8L20 12V20L13 24L6 20V12L13 8Z" fill="#CFCFCF"/>
<path d="M13 8L20 12V20L13 24L6 20V12L13 8Z" fill="#CFCFCF"/>
<path d="M13 9L19 12.5V19.5L13 23L7 19.5V12.5L13 9Z" fill="#EFEFEF"/>
<path d="M13 9L19 12.5V19.5L13 23L7 19.5V12.5L13 9Z" fill="#EFEFEF"/>
<path d="M11.0538 18.5C10.9872 18.5 10.9538 18.4667 10.9538 18.4V17.83C10.9538 17.7633 10.9872 17.73 11.0538 17.73H12.6138V12.92L11.1138 13.39C11.0805 13.3967 11.0538 13.3967 11.0338 13.39C11.0205 13.3767 11.0138 13.3533 11.0138 13.32V12.73C11.0138 12.6767 11.0338 12.6433 11.0738 12.63L13.1638 11.93C13.1838 11.9233 13.2038 11.92 13.2238 11.92C13.2505 11.9133 13.2772 11.91 13.3038 11.91H13.3638C13.4305 11.91 13.4638 11.9433 13.4638 12.01V17.73H14.8438C14.9105 17.73 14.9438 17.7633 14.9438 17.83V18.4C14.9438 18.4667 14.9105 18.5 14.8438 18.5H11.0538Z" fill="black"/>
<g filter="url(#filter0_b_35_772)">
<path d="M0 0H127V140H0V0Z" fill="white" fill-opacity="0.97"/>
</g>
<defs>
<filter id="filter0_b_35_772" x="-1" y="-1" width="129" height="142" filterUnits="userSpaceOnUse" color-interpolation-filters="sRGB">
<feFlood flood-opacity="0" result="BackgroundImageFix"/>
<feGaussianBlur in="BackgroundImageFix" stdDeviation="0.5"/>
<feComposite in2="SourceAlpha" operator="in" result="effect1_backgroundBlur_35_772"/>
<feBlend mode="normal" in="SourceGraphic" in2="effect1_backgroundBlur_35_772" result="shape"/>
</filter>
</defs>
</svg>
